solid box_wall_long_r1_c1_tubes_color_3_white
  facet normal -0.999969 -0.000000 -0.007902
    outer loop
      vertex 3.693990 97.358369 4.311286
      vertex 3.693990 89.725937 4.311286
      vertex 3.686141 89.712553 5.304626
    endloop
  endfacet
  facet normal -0.999969 0.000000 -0.007902
    outer loop
      vertex 3.693990 97.358369 4.311286
      vertex 3.686141 89.712553 5.304626
      vertex 3.686141 97.367382 5.304626
    endloop
  endfacet
  facet normal 0.793151 -0.609022 -0.001938
    outer loop
      vertex 3.693990 89.725937 4.311286
      vertex 4.500880 90.776778 4.311286
      vertex 4.495398 90.766479 5.304626
    endloop
  endfacet
  facet normal 0.793151 -0.609022 -0.001938
    outer loop
      vertex 3.693990 89.725937 4.311286
      vertex 4.495398 90.766479 5.304626
      vertex 3.686141 89.712553 5.304626
    endloop
  endfacet
  facet normal 0.782991 -0.622029 -0.002129
    outer loop
      vertex 4.500880 90.776778 4.311286
      vertex 5.414442 91.926742 4.311286
      vertex 5.411641 91.919817 5.304626
    endloop
  endfacet
  facet normal 0.782991 -0.622029 -0.002129
    outer loop
      vertex 4.500880 90.776778 4.311286
      vertex 5.411641 91.919817 5.304626
      vertex 4.495398 90.766479 5.304626
    endloop
  endfacet
  facet normal 0.783260 -0.621691 -0.002126
    outer loop
      vertex 5.414442 91.926742 4.311286
      vertex 6.453980 93.236442 4.311286
      vertex 6.454230 93.233360 5.304626
    endloop
  endfacet
  facet normal 0.783260 -0.621691 -0.002126
    outer loop
      vertex 5.414442 91.926742 4.311286
      vertex 6.454230 93.233360 5.304626
      vertex 5.411641 91.919817 5.304626
    endloop
  endfacet
  facet normal 0.837620 -0.546250 -0.001905
    outer loop
      vertex 6.453980 93.236442 4.311286
      vertex 7.435718 94.741839 4.311286
      vertex 7.438848 94.743174 5.304626
    endloop
  endfacet
  facet normal 0.837620 -0.546250 -0.001905
    outer loop
      vertex 6.453980 93.236442 4.311286
      vertex 7.438848 94.743174 5.304626
      vertex 6.454230 93.233360 5.304626
    endloop
  endfacet
  facet normal 0.867549 -0.497348 -0.002065
    outer loop
      vertex 7.435718 94.741839 4.311286
      vertex 8.223966 96.116818 4.311286
      vertex 8.229410 96.122188 5.304626
    endloop
  endfacet
  facet normal 0.867549 -0.497348 -0.002065
    outer loop
      vertex 7.435718 94.741839 4.311286
      vertex 8.229410 96.122188 5.304626
      vertex 7.438848 94.743174 5.304626
    endloop
  endfacet
  facet normal 0.861130 -0.508381 -0.001971
    outer loop
      vertex 8.223966 96.116818 4.311286
      vertex 8.946264 97.340296 4.311286
      vertex 8.953827 97.349256 5.304626
    endloop
  endfacet
  facet normal 0.861130 -0.508381 -0.001971
    outer loop
      vertex 8.223966 96.116818 4.311286
      vertex 8.953827 97.349256 5.304626
      vertex 8.229410 96.122188 5.304626
    endloop
  endfacet
  facet normal 0.853357 -0.521324 -0.001795
    outer loop
      vertex 8.946264 97.340296 4.311286
      vertex 8.957305 97.358369 4.311286
      vertex 8.964900 97.367382 5.304626
    endloop
  endfacet
  facet normal 0.853357 -0.521324 -0.001795
    outer loop
      vertex 8.946264 97.340296 4.311286
      vertex 8.964900 97.367382 5.304626
      vertex 8.953827 97.349256 5.304626
    endloop
  endfacet
  facet normal 0.000000 0.999959 -0.009073
    outer loop
      vertex 8.957305 97.358369 4.311286
      vertex 3.693990 97.358369 4.311286
      vertex 3.686141 97.367382 5.304626
    endloop
  endfacet
  facet normal 0.000000 0.999959 -0.009073
    outer loop
      vertex 8.957305 97.358369 4.311286
      vertex 3.686141 97.367382 5.304626
      vertex 8.964900 97.367382 5.304626
    endloop
  endfacet
  facet normal -0.999657 -0.000000 -0.026174
    outer loop
      vertex 3.686141 97.367382 5.304626
      vertex 3.686141 89.712553 5.304626
      vertex 3.659827 89.667687 6.309642
    endloop
  endfacet
  facet normal -0.999657 0.000000 -0.026174
    outer loop
      vertex 3.686141 97.367382 5.304626
      vertex 3.659827 89.667687 6.309642
      vertex 3.659827 97.397597 6.309642
    endloop
  endfacet
  facet normal 0.793136 -0.609010 -0.006421
    outer loop
      vertex 3.686141 89.712553 5.304626
      vertex 4.495398 90.766479 5.304626
      vertex 4.477022 90.731950 6.309642
    endloop
  endfacet
  facet normal 0.793136 -0.609010 -0.006421
    outer loop
      vertex 3.686141 89.712553 5.304626
      vertex 4.477022 90.731950 6.309642
      vertex 3.659827 89.667687 6.309642
    endloop
  endfacet
  facet normal 0.782973 -0.622015 -0.007054
    outer loop
      vertex 4.495398 90.766479 5.304626
      vertex 5.411641 91.919817 5.304626
      vertex 5.402251 91.896600 6.309642
    endloop
  endfacet
  facet normal 0.782973 -0.622015 -0.007054
    outer loop
      vertex 4.495398 90.766479 5.304626
      vertex 5.402251 91.896600 6.309642
      vertex 4.477022 90.731950 6.309642
    endloop
  endfacet
  facet normal 0.783242 -0.621677 -0.007044
    outer loop
      vertex 5.411641 91.919817 5.304626
      vertex 6.454230 93.233360 5.304626
      vertex 6.455066 93.223027 6.309642
    endloop
  endfacet
  facet normal 0.783242 -0.621677 -0.007044
    outer loop
      vertex 5.411641 91.919817 5.304626
      vertex 6.455066 93.223027 6.309642
      vertex 5.402251 91.896600 6.309642
    endloop
  endfacet
  facet normal 0.837605 -0.546240 -0.006313
    outer loop
      vertex 6.454230 93.233360 5.304626
      vertex 7.438848 94.743174 5.304626
      vertex 7.449342 94.747650 6.309642
    endloop
  endfacet
  facet normal 0.837605 -0.546240 -0.006313
    outer loop
      vertex 6.454230 93.233360 5.304626
      vertex 7.449342 94.747650 6.309642
      vertex 6.455066 93.223027 6.309642
    endloop
  endfacet
  facet normal 0.867530 -0.497338 -0.006843
    outer loop
      vertex 7.438848 94.743174 5.304626
      vertex 8.229410 96.122188 5.304626
      vertex 8.247658 96.140190 6.309642
    endloop
  endfacet
  facet normal 0.867530 -0.497338 -0.006843
    outer loop
      vertex 7.438848 94.743174 5.304626
      vertex 8.247658 96.140190 6.309642
      vertex 7.449342 94.747650 6.309642
    endloop
  endfacet
  facet normal 0.861113 -0.508371 -0.006529
    outer loop
      vertex 8.229410 96.122188 5.304626
      vertex 8.953827 97.349256 5.304626
      vertex 8.979180 97.379294 6.309642
    endloop
  endfacet
  facet normal 0.861113 -0.508371 -0.006529
    outer loop
      vertex 8.229410 96.122188 5.304626
      vertex 8.979180 97.379294 6.309642
      vertex 8.247658 96.140190 6.309642
    endloop
  endfacet
  facet normal 0.853343 -0.521316 -0.005946
    outer loop
      vertex 8.953827 97.349256 5.304626
      vertex 8.964900 97.367382 5.304626
      vertex 8.990362 97.397597 6.309642
    endloop
  endfacet
  facet normal 0.853343 -0.521316 -0.005946
    outer loop
      vertex 8.953827 97.349256 5.304626
      vertex 8.990362 97.397597 6.309642
      vertex 8.979180 97.379294 6.309642
    endloop
  endfacet
  facet normal 0.000000 0.999548 -0.030051
    outer loop
      vertex 8.964900 97.367382 5.304626
      vertex 3.686141 97.367382 5.304626
      vertex 3.659827 97.397597 6.309642
    endloop
  endfacet
  facet normal 0.000000 0.999548 -0.030051
    outer loop
      vertex 8.964900 97.367382 5.304626
      vertex 3.659827 97.397597 6.309642
      vertex 8.990362 97.397597 6.309642
    endloop
  endfacet
  facet normal -0.998638 -0.000000 -0.052168
    outer loop
      vertex 3.659827 97.397597 6.309642
      vertex 3.659827 89.667687 6.309642
      vertex 3.606831 89.577327 7.324125
    endloop
  endfacet
  facet normal -0.998638 0.000000 -0.052168
    outer loop
      vertex 3.659827 97.397597 6.309642
      vertex 3.606831 89.577327 7.324125
      vertex 3.606831 97.458450 7.324125
    endloop
  endfacet
  facet normal 0.793088 -0.608973 -0.012811
    outer loop
      vertex 3.659827 89.667687 6.309642
      vertex 4.477022 90.731950 6.309642
      vertex 4.440012 90.662408 7.324125
    endloop
  endfacet
  facet normal 0.793088 -0.608973 -0.012811
    outer loop
      vertex 3.659827 89.667687 6.309642
      vertex 4.440012 90.662408 7.324125
      vertex 3.606831 89.577327 7.324125
    endloop
  endfacet
  facet normal 0.782915 -0.621969 -0.014073
    outer loop
      vertex 4.477022 90.731950 6.309642
      vertex 5.402251 91.896600 6.309642
      vertex 5.383341 91.849842 7.324125
    endloop
  endfacet
  facet normal 0.782915 -0.621969 -0.014073
    outer loop
      vertex 4.477022 90.731950 6.309642
      vertex 5.383341 91.849842 7.324125
      vertex 4.440012 90.662408 7.324125
    endloop
  endfacet
  facet normal 0.783184 -0.621631 -0.014052
    outer loop
      vertex 5.402251 91.896600 6.309642
      vertex 6.455066 93.223027 6.309642
      vertex 6.456751 93.202217 7.324125
    endloop
  endfacet
  facet normal 0.783184 -0.621631 -0.014052
    outer loop
      vertex 5.402251 91.896600 6.309642
      vertex 6.456751 93.202217 7.324125
      vertex 5.383341 91.849842 7.324125
    endloop
  endfacet
  facet normal 0.837555 -0.546208 -0.012595
    outer loop
      vertex 6.455066 93.223027 6.309642
      vertex 7.449342 94.747650 6.309642
      vertex 7.470477 94.756665 7.324125
    endloop
  endfacet
  facet normal 0.837555 -0.546208 -0.012595
    outer loop
      vertex 6.455066 93.223027 6.309642
      vertex 7.470477 94.756665 7.324125
      vertex 6.456751 93.202217 7.324125
    endloop
  endfacet
  facet normal 0.867469 -0.497303 -0.013653
    outer loop
      vertex 7.449342 94.747650 6.309642
      vertex 8.247658 96.140190 6.309642
      vertex 8.284409 96.176445 7.324125
    endloop
  endfacet
  facet normal 0.867469 -0.497303 -0.013653
    outer loop
      vertex 7.449342 94.747650 6.309642
      vertex 8.284409 96.176445 7.324125
      vertex 7.470477 94.756665 7.324125
    endloop
  endfacet
  facet normal 0.861059 -0.508339 -0.013027
    outer loop
      vertex 8.247658 96.140190 6.309642
      vertex 8.979180 97.379294 6.309642
      vertex 9.030242 97.439788 7.324125
    endloop
  endfacet
  facet normal 0.861059 -0.508339 -0.013027
    outer loop
      vertex 8.247658 96.140190 6.309642
      vertex 9.030242 97.439788 7.324125
      vertex 8.284409 96.176445 7.324125
    endloop
  endfacet
  facet normal 0.853298 -0.521288 -0.011864
    outer loop
      vertex 8.979180 97.379294 6.309642
      vertex 8.990362 97.397597 6.309642
      vertex 9.041643 97.458450 7.324125
    endloop
  endfacet
  facet normal 0.853298 -0.521288 -0.011864
    outer loop
      vertex 8.979180 97.379294 6.309642
      vertex 9.041643 97.458450 7.324125
      vertex 9.030242 97.439788 7.324125
    endloop
  endfacet
  facet normal 0.000000 0.998206 -0.059876
    outer loop
      vertex 8.990362 97.397597 6.309642
      vertex 3.659827 97.397597 6.309642
      vertex 3.606831 97.458450 7.324125
    endloop
  endfacet
  facet normal 0.000000 0.998206 -0.059876
    outer loop
      vertex 8.990362 97.397597 6.309642
      vertex 3.606831 97.458450 7.324125
      vertex 9.041643 97.458450 7.324125
    endloop
  endfacet
  facet normal -0.996084 -0.000000 -0.088409
    outer loop
      vertex 3.606831 97.458450 7.324125
      vertex 3.606831 89.577327 7.324125
      vertex 3.516145 89.422704 8.345866
    endloop
  endfacet
  facet normal -0.996084 0.000000 -0.088409
    outer loop
      vertex 3.606831 97.458450 7.324125
      vertex 3.516145 89.422704 8.345866
      vertex 3.516145 97.562581 8.345866
    endloop
  endfacet
  facet normal 0.792965 -0.608879 -0.021763
    outer loop
      vertex 3.606831 89.577327 7.324125
      vertex 4.440012 90.662408 7.324125
      vertex 4.376681 90.543411 8.345866
    endloop
  endfacet
  facet normal 0.792965 -0.608879 -0.021763
    outer loop
      vertex 3.606831 89.577327 7.324125
      vertex 4.376681 90.543411 8.345866
      vertex 3.516145 89.422704 8.345866
    endloop
  endfacet
  facet normal 0.782769 -0.621853 -0.023906
    outer loop
      vertex 4.440012 90.662408 7.324125
      vertex 5.383341 91.849842 7.324125
      vertex 5.350981 91.769830 8.345866
    endloop
  endfacet
  facet normal 0.782769 -0.621853 -0.023906
    outer loop
      vertex 4.440012 90.662408 7.324125
      vertex 5.350981 91.769830 8.345866
      vertex 4.376681 90.543411 8.345866
    endloop
  endfacet
  facet normal 0.783038 -0.621515 -0.023871
    outer loop
      vertex 5.383341 91.849842 7.324125
      vertex 6.456751 93.202217 7.324125
      vertex 6.459634 93.166606 8.345866
    endloop
  endfacet
  facet normal 0.783038 -0.621515 -0.023871
    outer loop
      vertex 5.383341 91.849842 7.324125
      vertex 6.459634 93.166606 8.345866
      vertex 5.350981 91.769830 8.345866
    endloop
  endfacet
  facet normal 0.837430 -0.546126 -0.021397
    outer loop
      vertex 6.456751 93.202217 7.324125
      vertex 7.470477 94.756665 7.324125
      vertex 7.506642 94.772090 8.345866
    endloop
  endfacet
  facet normal 0.837430 -0.546126 -0.021397
    outer loop
      vertex 6.456751 93.202217 7.324125
      vertex 7.506642 94.772090 8.345866
      vertex 6.459634 93.166606 8.345866
    endloop
  endfacet
  facet normal 0.867317 -0.497216 -0.023193
    outer loop
      vertex 7.470477 94.756665 7.324125
      vertex 8.284409 96.176445 7.324125
      vertex 8.347298 96.238485 8.345866
    endloop
  endfacet
  facet normal 0.867317 -0.497216 -0.023193
    outer loop
      vertex 7.470477 94.756665 7.324125
      vertex 8.347298 96.238485 8.345866
      vertex 7.506642 94.772090 8.345866
    endloop
  endfacet
  facet normal 0.860921 -0.508257 -0.022129
    outer loop
      vertex 8.284409 96.176445 7.324125
      vertex 9.030242 97.439788 7.324125
      vertex 9.117618 97.543306 8.345866
    endloop
  endfacet
  facet normal 0.860921 -0.508257 -0.022129
    outer loop
      vertex 8.284409 96.176445 7.324125
      vertex 9.117618 97.543306 8.345866
      vertex 8.347298 96.238485 8.345866
    endloop
  endfacet
  facet normal 0.853185 -0.521219 -0.020154
    outer loop
      vertex 9.030242 97.439788 7.324125
      vertex 9.041643 97.458450 7.324125
      vertex 9.129393 97.562581 8.345866
    endloop
  endfacet
  facet normal 0.853185 -0.521219 -0.020154
    outer loop
      vertex 9.030242 97.439788 7.324125
      vertex 9.129393 97.562581 8.345866
      vertex 9.117618 97.543306 8.345866
    endloop
  endfacet
  facet normal 0.000000 0.994847 -0.101390
    outer loop
      vertex 9.041643 97.458450 7.324125
      vertex 3.606831 97.458450 7.324125
      vertex 3.516145 97.562581 8.345866
    endloop
  endfacet
  facet normal 0.000000 0.994847 -0.101390
    outer loop
      vertex 9.041643 97.458450 7.324125
      vertex 3.516145 97.562581 8.345866
      vertex 9.129393 97.562581 8.345866
    endloop
  endfacet
  facet normal -0.990921 -0.000000 -0.134448
    outer loop
      vertex 3.516145 97.562581 8.345866
      vertex 3.516145 89.422704 8.345866
      vertex 3.376830 89.185166 9.372656
    endloop
  endfacet
  facet normal -0.990921 0.000000 -0.134448
    outer loop
      vertex 3.516145 97.562581 8.345866
      vertex 3.376830 89.185166 9.372656
      vertex 3.376830 97.722549 9.372656
    endloop
  endfacet
  facet normal 0.792714 -0.608686 -0.033258
    outer loop
      vertex 3.516145 89.422704 8.345866
      vertex 4.376681 90.543411 8.345866
      vertex 4.279389 90.360602 9.372656
    endloop
  endfacet
  facet normal 0.792714 -0.608686 -0.033258
    outer loop
      vertex 3.516145 89.422704 8.345866
      vertex 4.279389 90.360602 9.372656
      vertex 3.376830 89.185166 9.372656
    endloop
  endfacet
  facet normal 0.782470 -0.621615 -0.036530
    outer loop
      vertex 4.376681 90.543411 8.345866
      vertex 5.350981 91.769830 8.345866
      vertex 5.301269 91.646914 9.372656
    endloop
  endfacet
  facet normal 0.782470 -0.621615 -0.036530
    outer loop
      vertex 4.376681 90.543411 8.345866
      vertex 5.301269 91.646914 9.372656
      vertex 4.279389 90.360602 9.372656
    endloop
  endfacet
  facet normal 0.782740 -0.621279 -0.036477
    outer loop
      vertex 5.350981 91.769830 8.345866
      vertex 6.459634 93.166606 8.345866
      vertex 6.464062 93.111900 9.372656
    endloop
  endfacet
  facet normal 0.782740 -0.621279 -0.036477
    outer loop
      vertex 5.350981 91.769830 8.345866
      vertex 6.464062 93.111900 9.372656
      vertex 5.301269 91.646914 9.372656
    endloop
  endfacet
  facet normal 0.837174 -0.545959 -0.032699
    outer loop
      vertex 6.459634 93.166606 8.345866
      vertex 7.506642 94.772090 8.345866
      vertex 7.562201 94.795787 9.372656
    endloop
  endfacet
  facet normal 0.837174 -0.545959 -0.032699
    outer loop
      vertex 6.459634 93.166606 8.345866
      vertex 7.562201 94.795787 9.372656
      vertex 6.464062 93.111900 9.372656
    endloop
  endfacet
  facet normal 0.867005 -0.497037 -0.035442
    outer loop
      vertex 7.506642 94.772090 8.345866
      vertex 8.347298 96.238485 8.345866
      vertex 8.443909 96.333792 9.372656
    endloop
  endfacet
  facet normal 0.867005 -0.497037 -0.035442
    outer loop
      vertex 7.506642 94.772090 8.345866
      vertex 8.443909 96.333792 9.372656
      vertex 7.562201 94.795787 9.372656
    endloop
  endfacet
  facet normal 0.860639 -0.508091 -0.033817
    outer loop
      vertex 8.347298 96.238485 8.345866
      vertex 9.117618 97.543306 8.345866
      vertex 9.251847 97.702333 9.372656
    endloop
  endfacet
  facet normal 0.860639 -0.508091 -0.033817
    outer loop
      vertex 8.347298 96.238485 8.345866
      vertex 9.251847 97.702333 9.372656
      vertex 8.443909 96.333792 9.372656
    endloop
  endfacet
  facet normal 0.852953 -0.521078 -0.030801
    outer loop
      vertex 9.117618 97.543306 8.345866
      vertex 9.129393 97.562581 8.345866
      vertex 9.264197 97.722549 9.372656
    endloop
  endfacet
  facet normal 0.852953 -0.521078 -0.030801
    outer loop
      vertex 9.117618 97.543306 8.345866
      vertex 9.264197 97.722549 9.372656
      vertex 9.251847 97.702333 9.372656
    endloop
  endfacet
  facet normal 0.000000 0.988081 -0.153938
    outer loop
      vertex 9.129393 97.562581 8.345866
      vertex 3.516145 97.562581 8.345866
      vertex 3.376830 97.722549 9.372656
    endloop
  endfacet
  facet normal 0.000000 0.988081 -0.153938
    outer loop
      vertex 9.129393 97.562581 8.345866
      vertex 3.376830 97.722549 9.372656
      vertex 9.264197 97.722549 9.372656
    endloop
  endfacet
  facet normal -0.982277 -0.000000 -0.187437
    outer loop
      vertex 3.376830 97.722549 9.372656
      vertex 3.376830 89.185166 9.372656
      vertex 3.180357 88.850172 10.402286
    endloop
  endfacet
  facet normal -0.982277 0.000000 -0.187437
    outer loop
      vertex 3.376830 97.722549 9.372656
      vertex 3.180357 88.850172 10.402286
      vertex 3.180357 97.948150 10.402286
    endloop
  endfacet
  facet normal 0.792285 -0.608357 -0.046748
    outer loop
      vertex 3.376830 89.185166 9.372656
      vertex 4.279389 90.360602 9.372656
      vertex 4.142182 90.102792 10.402286
    endloop
  endfacet
  facet normal 0.792285 -0.608357 -0.046748
    outer loop
      vertex 3.376830 89.185166 9.372656
      vertex 4.142182 90.102792 10.402286
      vertex 3.180357 88.850172 10.402286
    endloop
  endfacet
  facet normal 0.781960 -0.621210 -0.051342
    outer loop
      vertex 4.279389 90.360602 9.372656
      vertex 5.301269 91.646914 9.372656
      vertex 5.231162 91.473566 10.402286
    endloop
  endfacet
  facet normal 0.781960 -0.621210 -0.051342
    outer loop
      vertex 4.279389 90.360602 9.372656
      vertex 5.231162 91.473566 10.402286
      vertex 4.142182 90.102792 10.402286
    endloop
  endfacet
  facet normal 0.782231 -0.620875 -0.051267
    outer loop
      vertex 5.301269 91.646914 9.372656
      vertex 6.464062 93.111900 9.372656
      vertex 6.470308 93.034749 10.402286
    endloop
  endfacet
  facet normal 0.782231 -0.620875 -0.051267
    outer loop
      vertex 5.301269 91.646914 9.372656
      vertex 6.470308 93.034749 10.402286
      vertex 5.231162 91.473566 10.402286
    endloop
  endfacet
  facet normal 0.836736 -0.545674 -0.045963
    outer loop
      vertex 6.464062 93.111900 9.372656
      vertex 7.562201 94.795787 9.372656
      vertex 7.640554 94.829206 10.402286
    endloop
  endfacet
  facet normal 0.836736 -0.545674 -0.045963
    outer loop
      vertex 6.464062 93.111900 9.372656
      vertex 7.640554 94.829206 10.402286
      vertex 6.470308 93.034749 10.402286
    endloop
  endfacet
  facet normal 0.866473 -0.496732 -0.049815
    outer loop
      vertex 7.562201 94.795787 9.372656
      vertex 8.443909 96.333792 9.372656
      vertex 8.580158 96.468202 10.402286
    endloop
  endfacet
  facet normal 0.866473 -0.496732 -0.049815
    outer loop
      vertex 7.562201 94.795787 9.372656
      vertex 8.580158 96.468202 10.402286
      vertex 7.640554 94.829206 10.402286
    endloop
  endfacet
  facet normal 0.860158 -0.507807 -0.047533
    outer loop
      vertex 8.443909 96.333792 9.372656
      vertex 9.251847 97.702333 9.372656
      vertex 9.441149 97.926607 10.402286
    endloop
  endfacet
  facet normal 0.860158 -0.507807 -0.047533
    outer loop
      vertex 8.443909 96.333792 9.372656
      vertex 9.441149 97.926607 10.402286
      vertex 8.580158 96.468202 10.402286
    endloop
  endfacet
  facet normal 0.852558 -0.520836 -0.043298
    outer loop
      vertex 9.251847 97.702333 9.372656
      vertex 9.264197 97.722549 9.372656
      vertex 9.454310 97.948150 10.402286
    endloop
  endfacet
  facet normal 0.852558 -0.520836 -0.043298
    outer loop
      vertex 9.251847 97.702333 9.372656
      vertex 9.454310 97.948150 10.402286
      vertex 9.441149 97.926607 10.402286
    endloop
  endfacet
  facet normal 0.000000 0.976827 -0.214031
    outer loop
      vertex 9.264197 97.722549 9.372656
      vertex 3.376830 97.722549 9.372656
      vertex 3.180357 97.948150 10.402286
    endloop
  endfacet
  facet normal 0.000000 0.976827 -0.214031
    outer loop
      vertex 9.264197 97.722549 9.372656
      vertex 3.180357 97.948150 10.402286
      vertex 9.454310 97.948150 10.402286
    endloop
  endfacet
  facet normal -0.970061 -0.000000 -0.242860
    outer loop
      vertex 3.180357 97.948150 10.402286
      vertex 3.180357 88.850172 10.402286
      vertex 2.922425 88.410388 11.432547
    endloop
  endfacet
  facet normal -0.970061 0.000000 -0.242860
    outer loop
      vertex 3.180357 97.948150 10.402286
      vertex 2.922425 88.410388 11.432547
      vertex 2.922425 98.244321 11.432547
    endloop
  endfacet
  facet normal 0.791662 -0.607878 -0.061286
    outer loop
      vertex 3.180357 88.850172 10.402286
      vertex 4.142182 90.102792 10.402286
      vertex 3.962054 89.764335 11.432547
    endloop
  endfacet
  facet normal 0.791662 -0.607878 -0.061286
    outer loop
      vertex 3.180357 88.850172 10.402286
      vertex 3.962054 89.764335 11.432547
      vertex 2.922425 88.410388 11.432547
    endloop
  endfacet
  facet normal 0.781218 -0.620620 -0.067298
    outer loop
      vertex 4.142182 90.102792 10.402286
      vertex 5.231162 91.473566 10.402286
      vertex 5.139124 91.245994 11.432547
    endloop
  endfacet
  facet normal 0.781218 -0.620620 -0.067298
    outer loop
      vertex 4.142182 90.102792 10.402286
      vertex 5.139124 91.245994 11.432547
      vertex 3.962054 89.764335 11.432547
    endloop
  endfacet
  facet normal 0.781491 -0.620287 -0.067200
    outer loop
      vertex 5.231162 91.473566 10.402286
      vertex 6.470308 93.034749 10.402286
      vertex 6.478507 92.933464 11.432547
    endloop
  endfacet
  facet normal 0.781491 -0.620287 -0.067200
    outer loop
      vertex 5.231162 91.473566 10.402286
      vertex 6.478507 92.933464 11.432547
      vertex 5.139124 91.245994 11.432547
    endloop
  endfacet
  facet normal 0.836099 -0.545258 -0.060258
    outer loop
      vertex 6.470308 93.034749 10.402286
      vertex 7.640554 94.829206 10.402286
      vertex 7.743417 94.873078 11.432547
    endloop
  endfacet
  facet normal 0.836099 -0.545258 -0.060258
    outer loop
      vertex 6.470308 93.034749 10.402286
      vertex 7.743417 94.873078 11.432547
      vertex 6.478507 92.933464 11.432547
    endloop
  endfacet
  facet normal 0.865699 -0.496288 -0.065299
    outer loop
      vertex 7.640554 94.829206 10.402286
      vertex 8.580158 96.468202 10.402286
      vertex 8.759028 96.644657 11.432547
    endloop
  endfacet
  facet normal 0.865699 -0.496288 -0.065299
    outer loop
      vertex 7.640554 94.829206 10.402286
      vertex 8.759028 96.644657 11.432547
      vertex 7.743417 94.873078 11.432547
    endloop
  endfacet
  facet normal 0.859458 -0.507394 -0.062313
    outer loop
      vertex 8.580158 96.468202 10.402286
      vertex 9.441149 97.926607 10.402286
      vertex 9.689665 98.221035 11.432547
    endloop
  endfacet
  facet normal 0.859458 -0.507394 -0.062313
    outer loop
      vertex 8.580158 96.468202 10.402286
      vertex 9.689665 98.221035 11.432547
      vertex 8.759028 96.644657 11.432547
    endloop
  endfacet
  facet normal 0.851982 -0.520484 -0.056769
    outer loop
      vertex 9.441149 97.926607 10.402286
      vertex 9.454310 97.948150 10.402286
      vertex 9.703891 98.244321 11.432547
    endloop
  endfacet
  facet normal 0.851982 -0.520484 -0.056769
    outer loop
      vertex 9.441149 97.926607 10.402286
      vertex 9.703891 98.244321 11.432547
      vertex 9.689665 98.221035 11.432547
    endloop
  endfacet
  facet normal 0.000000 0.961077 -0.276282
    outer loop
      vertex 9.454310 97.948150 10.402286
      vertex 3.180357 97.948150 10.402286
      vertex 2.922425 98.244321 11.432547
    endloop
  endfacet
  facet normal 0.000000 0.961077 -0.276282
    outer loop
      vertex 9.454310 97.948150 10.402286
      vertex 2.922425 98.244321 11.432547
      vertex 9.703891 98.244321 11.432547
    endloop
  endfacet
  facet normal -0.955349 -0.000000 -0.295480
    outer loop
      vertex 2.922425 98.244321 11.432547
      vertex 2.922425 88.410388 11.432547
      vertex 2.604263 87.867910 12.461231
    endloop
  endfacet
  facet normal -0.955349 0.000000 -0.295480
    outer loop
      vertex 2.922425 98.244321 11.432547
      vertex 2.604263 87.867910 12.461231
      vertex 2.604263 98.609650 12.461231
    endloop
  endfacet
  facet normal 0.790881 -0.607278 -0.075638
    outer loop
      vertex 2.922425 88.410388 11.432547
      vertex 3.962054 89.764335 11.432547
      vertex 3.739864 89.346845 12.461231
    endloop
  endfacet
  facet normal 0.790881 -0.607278 -0.075638
    outer loop
      vertex 2.922425 88.410388 11.432547
      vertex 3.739864 89.346845 12.461231
      vertex 2.604263 87.867910 12.461231
    endloop
  endfacet
  facet normal 0.780289 -0.619882 -0.083041
    outer loop
      vertex 3.962054 89.764335 11.432547
      vertex 5.139124 91.245994 11.432547
      vertex 5.025594 90.965282 12.461231
    endloop
  endfacet
  facet normal 0.780289 -0.619882 -0.083041
    outer loop
      vertex 3.962054 89.764335 11.432547
      vertex 5.025594 90.965282 12.461231
      vertex 3.739864 89.346845 12.461231
    endloop
  endfacet
  facet normal 0.780564 -0.619551 -0.082920
    outer loop
      vertex 5.139124 91.245994 11.432547
      vertex 6.478507 92.933464 11.432547
      vertex 6.488621 92.808529 12.461231
    endloop
  endfacet
  facet normal 0.780564 -0.619551 -0.082920
    outer loop
      vertex 5.139124 91.245994 11.432547
      vertex 6.488621 92.808529 12.461231
      vertex 5.025594 90.965282 12.461231
    endloop
  endfacet
  facet normal 0.835302 -0.544738 -0.074372
    outer loop
      vertex 6.478507 92.933464 11.432547
      vertex 7.743417 94.873078 11.432547
      vertex 7.870300 94.927196 12.461231
    endloop
  endfacet
  facet normal 0.835302 -0.544738 -0.074372
    outer loop
      vertex 6.478507 92.933464 11.432547
      vertex 7.870300 94.927196 12.461231
      vertex 6.488621 92.808529 12.461231
    endloop
  endfacet
  facet normal 0.864729 -0.495732 -0.080580
    outer loop
      vertex 7.743417 94.873078 11.432547
      vertex 8.759028 96.644657 11.432547
      vertex 8.979665 96.862315 12.461231
    endloop
  endfacet
  facet normal 0.864729 -0.495732 -0.080580
    outer loop
      vertex 7.743417 94.873078 11.432547
      vertex 8.979665 96.862315 12.461231
      vertex 7.870300 94.927196 12.461231
    endloop
  endfacet
  facet normal 0.858582 -0.506876 -0.076903
    outer loop
      vertex 8.759028 96.644657 11.432547
      vertex 9.689665 98.221035 11.432547
      vertex 9.996214 98.584215 12.461231
    endloop
  endfacet
  facet normal 0.858582 -0.506876 -0.076903
    outer loop
      vertex 8.759028 96.644657 11.432547
      vertex 9.996214 98.584215 12.461231
      vertex 8.979665 96.862315 12.461231
    endloop
  endfacet
  facet normal 0.851261 -0.520044 -0.070073
    outer loop
      vertex 9.689665 98.221035 11.432547
      vertex 9.703891 98.244321 11.432547
      vertex 10.011752 98.609650 12.461231
    endloop
  endfacet
  facet normal 0.851261 -0.520044 -0.070073
    outer loop
      vertex 9.689665 98.221035 11.432547
      vertex 10.011752 98.609650 12.461231
      vertex 9.996214 98.584215 12.461231
    endloop
  endfacet
  facet normal 0.000000 0.942337 -0.334665
    outer loop
      vertex 9.703891 98.244321 11.432547
      vertex 2.922425 98.244321 11.432547
      vertex 2.604263 98.609650 12.461231
    endloop
  endfacet
  facet normal 0.000000 0.942337 -0.334665
    outer loop
      vertex 9.703891 98.244321 11.432547
      vertex 2.604263 98.609650 12.461231
      vertex 10.011752 98.609650 12.461231
    endloop
  endfacet
  facet normal -0.940333 -0.000000 -0.340255
    outer loop
      vertex 2.604263 98.609650 12.461231
      vertex 2.604263 87.867910 12.461231
      vertex 2.233409 87.235590 13.486127
    endloop
  endfacet
  facet normal -0.940333 0.000000 -0.340255
    outer loop
      vertex 2.604263 98.609650 12.461231
      vertex 2.233409 87.235590 13.486127
      vertex 2.233409 99.035484 13.486127
    endloop
  endfacet
  facet normal 0.790048 -0.606639 -0.088397
    outer loop
      vertex 2.604263 87.867910 12.461231
      vertex 3.739864 89.346845 12.461231
      vertex 3.480877 88.860212 13.486127
    endloop
  endfacet
  facet normal 0.790048 -0.606639 -0.088397
    outer loop
      vertex 2.604263 87.867910 12.461231
      vertex 3.480877 88.860212 13.486127
      vertex 2.233409 87.235590 13.486127
    endloop
  endfacet
  facet normal 0.779299 -0.619096 -0.097028
    outer loop
      vertex 3.739864 89.346845 12.461231
      vertex 5.025594 90.965282 12.461231
      vertex 4.893262 90.638080 13.486127
    endloop
  endfacet
  facet normal 0.779299 -0.619096 -0.097028
    outer loop
      vertex 3.739864 89.346845 12.461231
      vertex 4.893262 90.638080 13.486127
      vertex 3.480877 88.860212 13.486127
    endloop
  endfacet
  facet normal 0.779577 -0.618768 -0.096887
    outer loop
      vertex 5.025594 90.965282 12.461231
      vertex 6.488621 92.808529 12.461231
      vertex 6.500409 92.662902 13.486127
    endloop
  endfacet
  facet normal 0.779577 -0.618768 -0.096887
    outer loop
      vertex 5.025594 90.965282 12.461231
      vertex 6.500409 92.662902 13.486127
      vertex 4.893262 90.638080 13.486127
    endloop
  endfacet
  facet normal 0.834451 -0.544184 -0.086921
    outer loop
      vertex 6.488621 92.808529 12.461231
      vertex 7.870300 94.927196 12.461231
      vertex 8.018196 94.990276 13.486127
    endloop
  endfacet
  facet normal 0.834451 -0.544184 -0.086921
    outer loop
      vertex 6.488621 92.808529 12.461231
      vertex 8.018196 94.990276 13.486127
      vertex 6.500409 92.662902 13.486127
    endloop
  endfacet
  facet normal 0.863696 -0.495140 -0.094159
    outer loop
      vertex 7.870300 94.927196 12.461231
      vertex 8.979665 96.862315 12.461231
      vertex 9.236843 97.116022 13.486127
    endloop
  endfacet
  facet normal 0.863696 -0.495140 -0.094159
    outer loop
      vertex 7.870300 94.927196 12.461231
      vertex 9.236843 97.116022 13.486127
      vertex 8.018196 94.990276 13.486127
    endloop
  endfacet
  facet normal 0.857647 -0.506324 -0.089873
    outer loop
      vertex 8.979665 96.862315 12.461231
      vertex 9.996214 98.584215 12.461231
      vertex 10.353530 99.007543 13.486127
    endloop
  endfacet
  facet normal 0.857647 -0.506324 -0.089873
    outer loop
      vertex 8.979665 96.862315 12.461231
      vertex 10.353530 99.007543 13.486127
      vertex 9.236843 97.116022 13.486127
    endloop
  endfacet
  facet normal 0.850491 -0.519573 -0.081906
    outer loop
      vertex 9.996214 98.584215 12.461231
      vertex 10.011752 98.609650 12.461231
      vertex 10.370600 99.035484 13.486127
    endloop
  endfacet
  facet normal 0.850491 -0.519573 -0.081906
    outer loop
      vertex 9.996214 98.584215 12.461231
      vertex 10.370600 99.035484 13.486127
      vertex 10.353530 99.007543 13.486127
    endloop
  endfacet
  facet normal 0.000000 0.923462 -0.383689
    outer loop
      vertex 10.011752 98.609650 12.461231
      vertex 2.604263 98.609650 12.461231
      vertex 2.233409 99.035484 13.486127
    endloop
  endfacet
  facet normal 0.000000 0.923462 -0.383689
    outer loop
      vertex 10.011752 98.609650 12.461231
      vertex 2.233409 99.035484 13.486127
      vertex 10.370600 99.035484 13.486127
    endloop
  endfacet
  facet normal -0.927885 -0.000000 -0.372865
    outer loop
      vertex 2.233409 99.035484 13.486127
      vertex 2.233409 87.235590 13.486127
      vertex 1.823970 86.537480 14.505028
    endloop
  endfacet
  facet normal -0.927885 0.000000 -0.372865
    outer loop
      vertex 2.233409 99.035484 13.486127
      vertex 1.823970 86.537480 14.505028
      vertex 1.823970 99.505624 14.505028
    endloop
  endfacet
  facet normal 0.789329 -0.606087 -0.098079
    outer loop
      vertex 2.233409 87.235590 13.486127
      vertex 3.480877 88.860212 13.486127
      vertex 3.194943 88.322948 14.505028
    endloop
  endfacet
  facet normal 0.789329 -0.606087 -0.098079
    outer loop
      vertex 2.233409 87.235590 13.486127
      vertex 3.194943 88.322948 14.505028
      vertex 1.823970 86.537480 14.505028
    endloop
  endfacet
  facet normal 0.778444 -0.618417 -0.107635
    outer loop
      vertex 3.480877 88.860212 13.486127
      vertex 4.893262 90.638080 13.486127
      vertex 4.747162 90.276833 14.505028
    endloop
  endfacet
  facet normal 0.778444 -0.618417 -0.107635
    outer loop
      vertex 3.480877 88.860212 13.486127
      vertex 4.747162 90.276833 14.505028
      vertex 3.194943 88.322948 14.505028
    endloop
  endfacet
  facet normal 0.778724 -0.618091 -0.107480
    outer loop
      vertex 4.893262 90.638080 13.486127
      vertex 6.500409 92.662902 13.486127
      vertex 6.513425 92.502124 14.505028
    endloop
  endfacet
  facet normal 0.778724 -0.618091 -0.107480
    outer loop
      vertex 4.893262 90.638080 13.486127
      vertex 6.513425 92.502124 14.505028
      vertex 4.747162 90.276833 14.505028
    endloop
  endfacet
  facet normal 0.833717 -0.543705 -0.096444
    outer loop
      vertex 6.500409 92.662902 13.486127
      vertex 8.018196 94.990276 13.486127
      vertex 8.181480 95.059919 14.505028
    endloop
  endfacet
  facet normal 0.833717 -0.543705 -0.096444
    outer loop
      vertex 6.500409 92.662902 13.486127
      vertex 8.181480 95.059919 14.505028
      vertex 6.513425 92.502124 14.505028
    endloop
  endfacet
  facet normal 0.862804 -0.494628 -0.104460
    outer loop
      vertex 8.018196 94.990276 13.486127
      vertex 9.236843 97.116022 13.486127
      vertex 9.520779 97.396125 14.505028
    endloop
  endfacet
  facet normal 0.862804 -0.494628 -0.104460
    outer loop
      vertex 8.018196 94.990276 13.486127
      vertex 9.520779 97.396125 14.505028
      vertex 8.181480 95.059919 14.505028
    endloop
  endfacet
  facet normal 0.856840 -0.505848 -0.099714
    outer loop
      vertex 9.236843 97.116022 13.486127
      vertex 10.353530 99.007543 13.486127
      vertex 10.748024 99.474916 14.505028
    endloop
  endfacet
  facet normal 0.856840 -0.505848 -0.099714
    outer loop
      vertex 9.236843 97.116022 13.486127
      vertex 10.748024 99.474916 14.505028
      vertex 9.520779 97.396125 14.505028
    endloop
  endfacet
  facet normal 0.849826 -0.519167 -0.090888
    outer loop
      vertex 10.353530 99.007543 13.486127
      vertex 10.370600 99.035484 13.486127
      vertex 10.766784 99.505624 14.505028
    endloop
  endfacet
  facet normal 0.849826 -0.519167 -0.090888
    outer loop
      vertex 10.353530 99.007543 13.486127
      vertex 10.766784 99.505624 14.505028
      vertex 10.748024 99.474916 14.505028
    endloop
  endfacet
  facet normal 0.000000 0.908001 -0.418968
    outer loop
      vertex 10.370600 99.035484 13.486127
      vertex 2.233409 99.035484 13.486127
      vertex 1.823970 99.505624 14.505028
    endloop
  endfacet
  facet normal 0.000000 0.908001 -0.418968
    outer loop
      vertex 10.370600 99.035484 13.486127
      vertex 1.823970 99.505624 14.505028
      vertex 10.766784 99.505624 14.505028
    endloop
  endfacet
  facet normal -0.920965 -0.000000 -0.389645
    outer loop
      vertex 1.823970 99.505624 14.505028
      vertex 1.823970 86.537480 14.505028
      vertex 1.396360 85.808390 15.515724
    endloop
  endfacet
  facet normal -0.920965 0.000000 -0.389645
    outer loop
      vertex 1.823970 99.505624 14.505028
      vertex 1.396360 85.808390 15.515724
      vertex 1.396360 99.996627 15.515724
    endloop
  endfacet
  facet normal 0.912142 -0.000000 0.409874
    outer loop
      vertex 5.888885 93.468317 13.770878
      vertex 5.888885 94.838077 13.770878
      vertex 5.461451 95.328879 14.722097
    endloop
  endfacet
  facet normal 0.912142 0.000000 0.409874
    outer loop
      vertex 5.888885 93.468317 13.770878
      vertex 5.461451 95.328879 14.722097
      vertex 5.461451 92.739526 14.722097
    endloop
  endfacet
  facet normal 0.788917 -0.605771 -0.103209
    outer loop
      vertex 1.823970 86.537480 14.505028
      vertex 3.194943 88.322948 14.505028
      vertex 2.896320 87.761842 15.515724
    endloop
  endfacet
  facet normal 0.788917 -0.605771 -0.103209
    outer loop
      vertex 1.823970 86.537480 14.505028
      vertex 2.896320 87.761842 15.515724
      vertex 1.396360 85.808390 15.515724
    endloop
  endfacet
  facet normal -0.788379 0.605358 0.109543
    outer loop
      vertex 6.033694 93.656907 13.770878
      vertex 5.888885 93.468317 13.770878
      vertex 5.461451 92.739526 14.722097
    endloop
  endfacet
  facet normal -0.788379 0.605358 0.109543
    outer loop
      vertex 6.033694 93.656907 13.770878
      vertex 5.461451 92.739526 14.722097
      vertex 5.735194 93.096031 14.722097
    endloop
  endfacet
  facet normal 0.777955 -0.618029 -0.113253
    outer loop
      vertex 3.194943 88.322948 14.505028
      vertex 4.747162 90.276833 14.505028
      vertex 4.594578 89.899556 15.515724
    endloop
  endfacet
  facet normal 0.777955 -0.618029 -0.113253
    outer loop
      vertex 3.194943 88.322948 14.505028
      vertex 4.594578 89.899556 15.515724
      vertex 2.896320 87.761842 15.515724
    endloop
  endfacet
  facet normal -0.777317 0.617522 0.120187
    outer loop
      vertex 6.197647 93.863286 13.770878
      vertex 6.033694 93.656907 13.770878
      vertex 5.735194 93.096031 14.722097
    endloop
  endfacet
  facet normal -0.777317 0.617522 0.120187
    outer loop
      vertex 6.197647 93.863286 13.770878
      vertex 5.735194 93.096031 14.722097
      vertex 6.045126 93.486164 14.722097
    endloop
  endfacet
  facet normal 0.778237 -0.617704 -0.113090
    outer loop
      vertex 4.747162 90.276833 14.505028
      vertex 6.513425 92.502124 14.505028
      vertex 6.527018 92.334210 15.515724
    endloop
  endfacet
  facet normal 0.778237 -0.617704 -0.113090
    outer loop
      vertex 4.747162 90.276833 14.505028
      vertex 6.527018 92.334210 15.515724
      vertex 4.594578 89.899556 15.515724
    endloop
  endfacet
  facet normal -0.777600 0.617199 0.120013
    outer loop
      vertex 6.384209 94.098333 13.770878
      vertex 6.197647 93.863286 13.770878
      vertex 6.045126 93.486164 14.722097
    endloop
  endfacet
  facet normal -0.777600 0.617199 0.120013
    outer loop
      vertex 6.384209 94.098333 13.770878
      vertex 6.045126 93.486164 14.722097
      vertex 6.397796 93.930488 14.722097
    endloop
  endfacet
  facet normal 0.833296 -0.543430 -0.101491
    outer loop
      vertex 6.513425 92.502124 14.505028
      vertex 8.181480 95.059919 14.505028
      vertex 8.352009 95.132653 15.515724
    endloop
  endfacet
  facet normal 0.833296 -0.543430 -0.101491
    outer loop
      vertex 6.513425 92.502124 14.505028
      vertex 8.352009 95.132653 15.515724
      vertex 6.527018 92.334210 15.515724
    endloop
  endfacet
  facet normal -0.832748 0.543072 0.107721
    outer loop
      vertex 6.560397 94.368500 13.770878
      vertex 6.384209 94.098333 13.770878
      vertex 6.397796 93.930488 14.722097
    endloop
  endfacet
  facet normal -0.832748 0.543072 0.107721
    outer loop
      vertex 6.560397 94.368500 13.770878
      vertex 6.397796 93.930488 14.722097
      vertex 6.730857 94.441204 14.722097
    endloop
  endfacet
  facet normal 0.862294 -0.494336 -0.109916
    outer loop
      vertex 8.181480 95.059919 14.505028
      vertex 9.520779 97.396125 14.505028
      vertex 9.817316 97.688658 15.515724
    endloop
  endfacet
  facet normal 0.862294 -0.494336 -0.109916
    outer loop
      vertex 8.181480 95.059919 14.505028
      vertex 9.817316 97.688658 15.515724
      vertex 8.352009 95.132653 15.515724
    endloop
  endfacet
  facet normal -0.861628 0.493954 0.116651
    outer loop
      vertex 6.701861 94.615261 13.770878
      vertex 6.560397 94.368500 13.770878
      vertex 6.730857 94.441204 14.722097
    endloop
  endfacet
  facet normal -0.861628 0.493954 0.116651
    outer loop
      vertex 6.701861 94.615261 13.770878
      vertex 6.730857 94.441204 14.722097
      vertex 6.998275 94.907675 14.722097
    endloop
  endfacet
  facet normal 0.856378 -0.505575 -0.104927
    outer loop
      vertex 9.520779 97.396125 14.505028
      vertex 10.748024 99.474916 14.505028
      vertex 11.160025 99.963030 15.515724
    endloop
  endfacet
  facet normal 0.856378 -0.505575 -0.104927
    outer loop
      vertex 9.520779 97.396125 14.505028
      vertex 11.160025 99.963030 15.515724
      vertex 9.817316 97.688658 15.515724
    endloop
  endfacet
  facet normal -0.855775 0.505219 0.111364
    outer loop
      vertex 6.831488 94.834834 13.770878
      vertex 6.701861 94.615261 13.770878
      vertex 6.998275 94.907675 14.722097
    endloop
  endfacet
  facet normal -0.855775 0.505219 0.111364
    outer loop
      vertex 6.831488 94.834834 13.770878
      vertex 6.998275 94.907675 14.722097
      vertex 7.243320 95.322748 14.722097
    endloop
  endfacet
  facet normal 0.849446 -0.518935 -0.095649
    outer loop
      vertex 10.748024 99.474916 14.505028
      vertex 10.766784 99.505624 14.505028
      vertex 11.180549 99.996627 15.515724
    endloop
  endfacet
  facet normal 0.849446 -0.518935 -0.095649
    outer loop
      vertex 10.748024 99.474916 14.505028
      vertex 11.180549 99.996627 15.515724
      vertex 11.160025 99.963030 15.515724
    endloop
  endfacet
  facet normal -0.848948 0.518631 0.101529
    outer loop
      vertex 6.833470 94.838077 13.770878
      vertex 6.831488 94.834834 13.770878
      vertex 7.243320 95.322748 14.722097
    endloop
  endfacet
  facet normal -0.848948 0.518631 0.101529
    outer loop
      vertex 6.833470 94.838077 13.770878
      vertex 7.243320 95.322748 14.722097
      vertex 7.247065 95.328879 14.722097
    endloop
  endfacet
  facet normal 0.000000 0.899475 -0.436971
    outer loop
      vertex 10.766784 99.505624 14.505028
      vertex 1.823970 99.505624 14.505028
      vertex 1.396360 99.996627 15.515724
    endloop
  endfacet
  facet normal 0.000000 0.899475 -0.436971
    outer loop
      vertex 10.766784 99.505624 14.505028
      vertex 1.396360 99.996627 15.515724
      vertex 11.180549 99.996627 15.515724
    endloop
  endfacet
  facet normal 0.000000 -0.888678 0.458532
    outer loop
      vertex 5.888885 94.838077 13.770878
      vertex 6.833470 94.838077 13.770878
      vertex 7.247065 95.328879 14.722097
    endloop
  endfacet
  facet normal 0.000000 -0.888678 0.458532
    outer loop
      vertex 5.888885 94.838077 13.770878
      vertex 7.247065 95.328879 14.722097
      vertex 5.461451 95.328879 14.722097
    endloop
  endfacet
  facet normal -0.922076 -0.000000 -0.387009
    outer loop
      vertex 1.396360 99.996627 15.515724
      vertex 1.396360 85.808390 15.515724
      vertex 0.976526 85.092557 16.516007
    endloop
  endfacet
  facet normal -0.922076 0.000000 -0.387009
    outer loop
      vertex 1.396360 99.996627 15.515724
      vertex 0.976526 85.092557 16.516007
      vertex 0.976526 100.478702 16.516007
    endloop
  endfacet
  facet normal 0.914340 -0.000000 0.404946
    outer loop
      vertex 5.461451 92.739526 14.722097
      vertex 5.461451 95.328879 14.722097
      vertex 5.041538 95.811044 15.670230
    endloop
  endfacet
  facet normal 0.914340 0.000000 0.404946
    outer loop
      vertex 5.461451 92.739526 14.722097
      vertex 5.041538 95.811044 15.670230
      vertex 5.041538 92.023559 15.670230
    endloop
  endfacet
  facet normal 0.788984 -0.605822 -0.102396
    outer loop
      vertex 1.396360 85.808390 15.515724
      vertex 2.896320 87.761842 15.515724
      vertex 2.603127 87.210938 16.516007
    endloop
  endfacet
  facet normal 0.788984 -0.605822 -0.102396
    outer loop
      vertex 1.396360 85.808390 15.515724
      vertex 2.603127 87.210938 16.516007
      vertex 0.976526 85.092557 16.516007
    endloop
  endfacet
  facet normal -0.788515 0.605462 0.107984
    outer loop
      vertex 5.735194 93.096031 14.722097
      vertex 5.461451 92.739526 14.722097
      vertex 5.041538 92.023559 15.670230
    endloop
  endfacet
  facet normal -0.788515 0.605462 0.107984
    outer loop
      vertex 5.735194 93.096031 14.722097
      vertex 5.041538 92.023559 15.670230
      vertex 5.441946 92.545024 15.670230
    endloop
  endfacet
  facet normal 0.778034 -0.618091 -0.112363
    outer loop
      vertex 2.896320 87.761842 15.515724
      vertex 4.594578 89.899556 15.515724
      vertex 4.444768 89.529139 16.516007
    endloop
  endfacet
  facet normal 0.778034 -0.618091 -0.112363
    outer loop
      vertex 2.896320 87.761842 15.515724
      vertex 4.444768 89.529139 16.516007
      vertex 2.603127 87.210938 16.516007
    endloop
  endfacet
  facet normal -0.777478 0.617649 0.118481
    outer loop
      vertex 6.045126 93.486164 14.722097
      vertex 5.735194 93.096031 14.722097
      vertex 5.441946 92.545024 15.670230
    endloop
  endfacet
  facet normal -0.777478 0.617649 0.118481
    outer loop
      vertex 6.045126 93.486164 14.722097
      vertex 5.441946 92.545024 15.670230
      vertex 5.895288 93.115677 15.670230
    endloop
  endfacet
  facet normal 0.778316 -0.617767 -0.112201
    outer loop
      vertex 4.594578 89.899556 15.515724
      vertex 6.527018 92.334210 15.515724
      vertex 6.540363 92.169350 16.516007
    endloop
  endfacet
  facet normal 0.778316 -0.617767 -0.112201
    outer loop
      vertex 4.594578 89.899556 15.515724
      vertex 6.540363 92.169350 16.516007
      vertex 4.444768 89.529139 16.516007
    endloop
  endfacet
  facet normal -0.777760 0.617326 0.118310
    outer loop
      vertex 6.397796 93.930488 14.722097
      vertex 6.045126 93.486164 14.722097
      vertex 5.895288 93.115677 15.670230
    endloop
  endfacet
  facet normal -0.777760 0.617326 0.118310
    outer loop
      vertex 6.397796 93.930488 14.722097
      vertex 5.895288 93.115677 15.670230
      vertex 6.411144 93.765597 15.670230
    endloop
  endfacet
  facet normal 0.833365 -0.543475 -0.100691
    outer loop
      vertex 6.527018 92.334210 15.515724
      vertex 8.352009 95.132653 15.515724
      vertex 8.519439 95.204065 16.516007
    endloop
  endfacet
  facet normal 0.833365 -0.543475 -0.100691
    outer loop
      vertex 6.527018 92.334210 15.515724
      vertex 8.519439 95.204065 16.516007
      vertex 6.540363 92.169350 16.516007
    endloop
  endfacet
  facet normal -0.832886 0.543163 0.106188
    outer loop
      vertex 6.730857 94.441204 14.722097
      vertex 6.397796 93.930488 14.722097
      vertex 6.411144 93.765597 15.670230
    endloop
  endfacet
  facet normal -0.832886 0.543163 0.106188
    outer loop
      vertex 6.730857 94.441204 14.722097
      vertex 6.411144 93.765597 15.670230
      vertex 6.898318 94.512629 15.670230
    endloop
  endfacet
  facet normal 0.862376 -0.494383 -0.109052
    outer loop
      vertex 8.352009 95.132653 15.515724
      vertex 9.817316 97.688658 15.515724
      vertex 10.108460 97.975872 16.516007
    endloop
  endfacet
  facet normal 0.862376 -0.494383 -0.109052
    outer loop
      vertex 8.352009 95.132653 15.515724
      vertex 10.108460 97.975872 16.516007
      vertex 8.519439 95.204065 16.516007
    endloop
  endfacet
  facet normal -0.861795 0.494050 0.114994
    outer loop
      vertex 6.998275 94.907675 14.722097
      vertex 6.730857 94.441204 14.722097
      vertex 6.898318 94.512629 15.670230
    endloop
  endfacet
  facet normal -0.861795 0.494050 0.114994
    outer loop
      vertex 6.998275 94.907675 14.722097
      vertex 6.898318 94.512629 15.670230
      vertex 7.289475 95.194943 15.670230
    endloop
  endfacet
  facet normal 0.856453 -0.505620 -0.104101
    outer loop
      vertex 9.817316 97.688658 15.515724
      vertex 11.160025 99.963030 15.515724
      vertex 11.564534 100.442269 16.516007
    endloop
  endfacet
  facet normal 0.856453 -0.505620 -0.104101
    outer loop
      vertex 9.817316 97.688658 15.515724
      vertex 11.564534 100.442269 16.516007
      vertex 10.108460 97.975872 16.516007
    endloop
  endfacet
  facet normal -0.855927 0.505309 0.109780
    outer loop
      vertex 7.243320 95.322748 14.722097
      vertex 6.998275 94.907675 14.722097
      vertex 7.289475 95.194943 15.670230
    endloop
  endfacet
  facet normal -0.855927 0.505309 0.109780
    outer loop
      vertex 7.243320 95.322748 14.722097
      vertex 7.289475 95.194943 15.670230
      vertex 7.647905 95.802076 15.670230
    endloop
  endfacet
  facet normal 0.849507 -0.518973 -0.094895
    outer loop
      vertex 11.160025 99.963030 15.515724
      vertex 11.180549 99.996627 15.515724
      vertex 11.586791 100.478702 16.516007
    endloop
  endfacet
  facet normal 0.849507 -0.518973 -0.094895
    outer loop
      vertex 11.160025 99.963030 15.515724
      vertex 11.586791 100.478702 16.516007
      vertex 11.564534 100.442269 16.516007
    endloop
  endfacet
  facet normal -0.849074 0.518708 0.100082
    outer loop
      vertex 7.247065 95.328879 14.722097
      vertex 7.243320 95.322748 14.722097
      vertex 7.647905 95.802076 15.670230
    endloop
  endfacet
  facet normal -0.849074 0.518708 0.100082
    outer loop
      vertex 7.247065 95.328879 14.722097
      vertex 7.647905 95.802076 15.670230
      vertex 7.653384 95.811044 15.670230
    endloop
  endfacet
  facet normal 0.000000 0.900840 -0.434150
    outer loop
      vertex 11.180549 99.996627 15.515724
      vertex 1.396360 99.996627 15.515724
      vertex 0.976526 100.478702 16.516007
    endloop
  endfacet
  facet normal 0.000000 0.900840 -0.434150
    outer loop
      vertex 11.180549 99.996627 15.515724
      vertex 0.976526 100.478702 16.516007
      vertex 11.586791 100.478702 16.516007
    endloop
  endfacet
  facet normal 0.000000 -0.891361 0.453294
    outer loop
      vertex 5.461451 95.328879 14.722097
      vertex 7.247065 95.328879 14.722097
      vertex 7.653384 95.811044 15.670230
    endloop
  endfacet
  facet normal 0.000000 -0.891361 0.453294
    outer loop
      vertex 5.461451 95.328879 14.722097
      vertex 7.653384 95.811044 15.670230
      vertex 5.041538 95.811044 15.670230
    endloop
  endfacet
  facet normal -0.932706 -0.000000 -0.360637
    outer loop
      vertex 0.976526 100.478702 16.516007
      vertex 0.976526 85.092557 16.516007
      vertex 0.594642 84.441428 17.503666
    endloop
  endfacet
  facet normal -0.932706 0.000000 -0.360637
    outer loop
      vertex 0.976526 100.478702 16.516007
      vertex 0.594642 84.441428 17.503666
      vertex 0.594642 100.917202 17.503666
    endloop
  endfacet
  facet normal 0.927086 -0.000000 0.374849
    outer loop
      vertex 5.041538 92.023559 15.670230
      vertex 5.041538 95.811044 15.670230
      vertex 4.659692 96.249501 16.614624
    endloop
  endfacet
  facet normal 0.927086 0.000000 0.374849
    outer loop
      vertex 5.041538 92.023559 15.670230
      vertex 4.659692 96.249501 16.614624
      vertex 4.659692 91.372495 16.614624
    endloop
  endfacet
  facet normal 0.789610 -0.606303 -0.094406
    outer loop
      vertex 0.976526 85.092557 16.516007
      vertex 2.603127 87.210938 16.516007
      vertex 2.336436 86.709831 17.503666
    endloop
  endfacet
  facet normal 0.789610 -0.606303 -0.094406
    outer loop
      vertex 0.976526 85.092557 16.516007
      vertex 2.336436 86.709831 17.503666
      vertex 0.594642 84.441428 17.503666
    endloop
  endfacet
  facet normal -0.789281 0.606050 0.098680
    outer loop
      vertex 5.441946 92.545024 15.670230
      vertex 5.041538 92.023559 15.670230
      vertex 4.659692 91.372495 16.614624
    endloop
  endfacet
  facet normal -0.789281 0.606050 0.098680
    outer loop
      vertex 5.441946 92.545024 15.670230
      vertex 4.659692 91.372495 16.614624
      vertex 5.175282 92.043966 16.614624
    endloop
  endfacet
  facet normal 0.778779 -0.618683 -0.103612
    outer loop
      vertex 2.603127 87.210938 16.516007
      vertex 4.444768 89.529139 16.516007
      vertex 4.308500 89.192204 17.503666
    endloop
  endfacet
  facet normal 0.778779 -0.618683 -0.103612
    outer loop
      vertex 2.603127 87.210938 16.516007
      vertex 4.308500 89.192204 17.503666
      vertex 2.336436 86.709831 17.503666
    endloop
  endfacet
  facet normal -0.778388 0.618372 0.108293
    outer loop
      vertex 5.895288 93.115677 15.670230
      vertex 5.441946 92.545024 15.670230
      vertex 5.175282 92.043966 16.614624
    endloop
  endfacet
  facet normal -0.778388 0.618372 0.108293
    outer loop
      vertex 5.895288 93.115677 15.670230
      vertex 5.175282 92.043966 16.614624
      vertex 5.759034 92.778776 16.614624
    endloop
  endfacet
  facet normal 0.779058 -0.618356 -0.103462
    outer loop
      vertex 4.444768 89.529139 16.516007
      vertex 6.540363 92.169350 16.516007
      vertex 6.552503 92.019392 17.503666
    endloop
  endfacet
  facet normal 0.779058 -0.618356 -0.103462
    outer loop
      vertex 4.444768 89.529139 16.516007
      vertex 6.552503 92.019392 17.503666
      vertex 4.308500 89.192204 17.503666
    endloop
  endfacet
  facet normal -0.778668 0.618047 0.108137
    outer loop
      vertex 6.411144 93.765597 15.670230
      vertex 5.895288 93.115677 15.670230
      vertex 5.759034 92.778776 16.614624
    endloop
  endfacet
  facet normal -0.778668 0.618047 0.108137
    outer loop
      vertex 6.411144 93.765597 15.670230
      vertex 5.759034 92.778776 16.614624
      vertex 6.423282 93.615653 16.614624
    endloop
  endfacet
  facet normal 0.834005 -0.543892 -0.092831
    outer loop
      vertex 6.540363 92.169350 16.516007
      vertex 8.519439 95.204065 16.516007
      vertex 8.671734 95.269021 17.503666
    endloop
  endfacet
  facet normal 0.834005 -0.543892 -0.092831
    outer loop
      vertex 6.540363 92.169350 16.516007
      vertex 8.671734 95.269021 17.503666
      vertex 6.552503 92.019392 17.503666
    endloop
  endfacet
  facet normal -0.833669 0.543673 0.097035
    outer loop
      vertex 6.898318 94.512629 15.670230
      vertex 6.411144 93.765597 15.670230
      vertex 6.423282 93.615653 16.614624
    endloop
  endfacet
  facet normal -0.833669 0.543673 0.097035
    outer loop
      vertex 6.898318 94.512629 15.670230
      vertex 6.423282 93.615653 16.614624
      vertex 7.050598 94.577579 16.614624
    endloop
  endfacet
  facet normal 0.863153 -0.494829 -0.100553
    outer loop
      vertex 8.519439 95.204065 16.516007
      vertex 10.108460 97.975872 16.516007
      vertex 10.373288 98.237124 17.503666
    endloop
  endfacet
  facet normal 0.863153 -0.494829 -0.100553
    outer loop
      vertex 8.519439 95.204065 16.516007
      vertex 10.373288 98.237124 17.503666
      vertex 8.671734 95.269021 17.503666
    endloop
  endfacet
  facet normal -0.862746 0.494595 0.105099
    outer loop
      vertex 7.289475 95.194943 15.670230
      vertex 6.898318 94.512629 15.670230
      vertex 7.050598 94.577579 16.614624
    endloop
  endfacet
  facet normal -0.862746 0.494595 0.105099
    outer loop
      vertex 7.289475 95.194943 15.670230
      vertex 7.050598 94.577579 16.614624
      vertex 7.554276 95.456169 16.614624
    endloop
  endfacet
  facet normal 0.857156 -0.506035 -0.095980
    outer loop
      vertex 10.108460 97.975872 16.516007
      vertex 11.564534 100.442269 16.516007
      vertex 11.932479 100.878189 17.503666
    endloop
  endfacet
  facet normal 0.857156 -0.506035 -0.095980
    outer loop
      vertex 10.108460 97.975872 16.516007
      vertex 11.932479 100.878189 17.503666
      vertex 10.373288 98.237124 17.503666
    endloop
  endfacet
  facet normal -0.856787 0.505817 0.100324
    outer loop
      vertex 7.647905 95.802076 15.670230
      vertex 7.289475 95.194943 15.670230
      vertex 7.554276 95.456169 16.614624
    endloop
  endfacet
  facet normal -0.856787 0.505817 0.100324
    outer loop
      vertex 7.647905 95.802076 15.670230
      vertex 7.554276 95.456169 16.614624
      vertex 8.015813 96.237953 16.614624
    endloop
  endfacet
  facet normal 0.850087 -0.519326 -0.087480
    outer loop
      vertex 11.564534 100.442269 16.516007
      vertex 11.586791 100.478702 16.516007
      vertex 11.956312 100.917202 17.503666
    endloop
  endfacet
  facet normal 0.850087 -0.519326 -0.087480
    outer loop
      vertex 11.564534 100.442269 16.516007
      vertex 11.956312 100.917202 17.503666
      vertex 11.932479 100.878189 17.503666
    endloop
  endfacet
  facet normal -0.849783 0.519141 0.091446
    outer loop
      vertex 7.653384 95.811044 15.670230
      vertex 7.647905 95.802076 15.670230
      vertex 8.015813 96.237953 16.614624
    endloop
  endfacet
  facet normal -0.849783 0.519141 0.091446
    outer loop
      vertex 7.653384 95.811044 15.670230
      vertex 8.015813 96.237953 16.614624
      vertex 8.022868 96.249501 16.614624
    endloop
  endfacet
  facet normal 0.000000 0.913969 -0.405783
    outer loop
      vertex 11.586791 100.478702 16.516007
      vertex 0.976526 100.478702 16.516007
      vertex 0.594642 100.917202 17.503666
    endloop
  endfacet
  facet normal 0.000000 0.913969 -0.405783
    outer loop
      vertex 11.586791 100.478702 16.516007
      vertex 0.594642 100.917202 17.503666
      vertex 11.956312 100.917202 17.503666
    endloop
  endfacet
  facet normal 0.000000 -0.907013 0.421102
    outer loop
      vertex 5.041538 95.811044 15.670230
      vertex 7.653384 95.811044 15.670230
      vertex 8.022868 96.249501 16.614624
    endloop
  endfacet
  facet normal 0.000000 -0.907013 0.421102
    outer loop
      vertex 5.041538 95.811044 15.670230
      vertex 8.022868 96.249501 16.614624
      vertex 4.659692 96.249501 16.614624
    endloop
  endfacet
  facet normal -0.952411 -0.000000 -0.304818
    outer loop
      vertex 0.594642 100.917202 17.503666
      vertex 0.594642 84.441428 17.503666
      vertex 0.283289 83.910560 18.476494
    endloop
  endfacet
  facet normal -0.952411 0.000000 -0.304818
    outer loop
      vertex 0.594642 100.917202 17.503666
      vertex 0.283289 83.910560 18.476494
      vertex 0.283289 101.274713 18.476494
    endloop
  endfacet
  facet normal 0.949249 -0.000000 0.314526
    outer loop
      vertex 4.659692 91.372495 16.614624
      vertex 4.659692 96.249501 16.614624
      vertex 4.348230 96.607137 17.554622
    endloop
  endfacet
  facet normal 0.949249 0.000000 0.314526
    outer loop
      vertex 4.659692 91.372495 16.614624
      vertex 4.348230 96.607137 17.554622
      vertex 4.348230 90.841441 17.554622
    endloop
  endfacet
  facet normal 0.790720 -0.607155 -0.078253
    outer loop
      vertex 0.594642 84.441428 17.503666
      vertex 2.336436 86.709831 17.503666
      vertex 2.119002 86.301276 18.476494
    endloop
  endfacet
  facet normal 0.790720 -0.607155 -0.078253
    outer loop
      vertex 0.594642 84.441428 17.503666
      vertex 2.119002 86.301276 18.476494
      vertex 0.283289 83.910560 18.476494
    endloop
  endfacet
  facet normal -0.790547 0.607022 0.080996
    outer loop
      vertex 5.175282 92.043966 16.614624
      vertex 4.659692 91.372495 16.614624
      vertex 4.348230 90.841441 17.554622
    endloop
  endfacet
  facet normal -0.790547 0.607022 0.080996
    outer loop
      vertex 5.175282 92.043966 16.614624
      vertex 4.348230 90.841441 17.554622
      vertex 4.957771 91.635269 17.554622
    endloop
  endfacet
  facet normal 0.780098 -0.619731 -0.085908
    outer loop
      vertex 2.336436 86.709831 17.503666
      vertex 4.308500 89.192204 17.503666
      vertex 4.197400 88.917499 18.476494
    endloop
  endfacet
  facet normal 0.780098 -0.619731 -0.085908
    outer loop
      vertex 2.336436 86.709831 17.503666
      vertex 4.197400 88.917499 18.476494
      vertex 2.119002 86.301276 18.476494
    endloop
  endfacet
  facet normal -0.779892 0.619567 0.088916
    outer loop
      vertex 5.759034 92.778776 16.614624
      vertex 5.175282 92.043966 16.614624
      vertex 4.957771 91.635269 17.554622
    endloop
  endfacet
  facet normal -0.779892 0.619567 0.088916
    outer loop
      vertex 5.759034 92.778776 16.614624
      vertex 4.957771 91.635269 17.554622
      vertex 5.647895 92.503975 17.554622
    endloop
  endfacet
  facet normal 0.780374 -0.619401 -0.085784
    outer loop
      vertex 4.308500 89.192204 17.503666
      vertex 6.552503 92.019392 17.503666
      vertex 6.562400 91.897130 18.476494
    endloop
  endfacet
  facet normal 0.780374 -0.619401 -0.085784
    outer loop
      vertex 4.308500 89.192204 17.503666
      vertex 6.562400 91.897130 18.476494
      vertex 4.197400 88.917499 18.476494
    endloop
  endfacet
  facet normal -0.780168 0.619237 0.088787
    outer loop
      vertex 6.423282 93.615653 16.614624
      vertex 5.759034 92.778776 16.614624
      vertex 5.647895 92.503975 17.554622
    endloop
  endfacet
  facet normal -0.780168 0.619237 0.088787
    outer loop
      vertex 6.423282 93.615653 16.614624
      vertex 5.647895 92.503975 17.554622
      vertex 6.433183 93.493349 17.554622
    endloop
  endfacet
  facet normal 0.835138 -0.544632 -0.076944
    outer loop
      vertex 6.552503 92.019392 17.503666
      vertex 8.671734 95.269021 17.503666
      vertex 8.795901 95.321981 18.476494
    endloop
  endfacet
  facet normal 0.835138 -0.544632 -0.076944
    outer loop
      vertex 6.552503 92.019392 17.503666
      vertex 8.795901 95.321981 18.476494
      vertex 6.562400 91.897130 18.476494
    endloop
  endfacet
  facet normal -0.834961 0.544516 0.079642
    outer loop
      vertex 7.050598 94.577579 16.614624
      vertex 6.423282 93.615653 16.614624
      vertex 6.433183 93.493349 17.554622
    endloop
  endfacet
  facet normal -0.834961 0.544516 0.079642
    outer loop
      vertex 7.050598 94.577579 16.614624
      vertex 6.433183 93.493349 17.554622
      vertex 7.174808 94.630557 17.554622
    endloop
  endfacet
  facet normal 0.864531 -0.495618 -0.083364
    outer loop
      vertex 8.671734 95.269021 17.503666
      vertex 10.373288 98.237124 17.503666
      vertex 10.589204 98.450125 18.476494
    endloop
  endfacet
  facet normal 0.864531 -0.495618 -0.083364
    outer loop
      vertex 8.671734 95.269021 17.503666
      vertex 10.589204 98.450125 18.476494
      vertex 8.795901 95.321981 18.476494
    endloop
  endfacet
  facet normal -0.864315 0.495495 0.086284
    outer loop
      vertex 7.554276 95.456169 16.614624
      vertex 7.050598 94.577579 16.614624
      vertex 7.174808 94.630557 17.554622
    endloop
  endfacet
  facet normal -0.864315 0.495495 0.086284
    outer loop
      vertex 7.554276 95.456169 16.614624
      vertex 7.174808 94.630557 17.554622
      vertex 7.770267 95.669244 17.554622
    endloop
  endfacet
  facet normal 0.858402 -0.506770 -0.079562
    outer loop
      vertex 10.373288 98.237124 17.503666
      vertex 11.932479 100.878189 17.503666
      vertex 12.232466 101.233596 18.476494
    endloop
  endfacet
  facet normal 0.858402 -0.506770 -0.079562
    outer loop
      vertex 10.373288 98.237124 17.503666
      vertex 12.232466 101.233596 18.476494
      vertex 10.589204 98.450125 18.476494
    endloop
  endfacet
  facet normal -0.858207 0.506655 0.082350
    outer loop
      vertex 8.015813 96.237953 16.614624
      vertex 7.554276 95.456169 16.614624
      vertex 7.770267 95.669244 17.554622
    endloop
  endfacet
  facet normal -0.858207 0.506655 0.082350
    outer loop
      vertex 8.015813 96.237953 16.614624
      vertex 7.770267 95.669244 17.554622
      vertex 8.315905 96.593484 17.554622
    endloop
  endfacet
  facet normal 0.851113 -0.519953 -0.072498
    outer loop
      vertex 11.932479 100.878189 17.503666
      vertex 11.956312 100.917202 17.503666
      vertex 12.257585 101.274713 18.476494
    endloop
  endfacet
  facet normal 0.851113 -0.519953 -0.072498
    outer loop
      vertex 11.932479 100.878189 17.503666
      vertex 12.257585 101.274713 18.476494
      vertex 12.232466 101.233596 18.476494
    endloop
  endfacet
  facet normal -0.850952 0.519855 0.075042
    outer loop
      vertex 8.022868 96.249501 16.614624
      vertex 8.015813 96.237953 16.614624
      vertex 8.315905 96.593484 17.554622
    endloop
  endfacet
  facet normal -0.850952 0.519855 0.075042
    outer loop
      vertex 8.022868 96.249501 16.614624
      vertex 8.315905 96.593484 17.554622
      vertex 8.324246 96.607137 17.554622
    endloop
  endfacet
  facet normal 0.000000 0.938624 -0.344942
    outer loop
      vertex 11.956312 100.917202 17.503666
      vertex 0.594642 100.917202 17.503666
      vertex 0.283289 101.274713 18.476494
    endloop
  endfacet
  facet normal 0.000000 0.938624 -0.344942
    outer loop
      vertex 11.956312 100.917202 17.503666
      vertex 0.283289 101.274713 18.476494
      vertex 12.257585 101.274713 18.476494
    endloop
  endfacet
  facet normal 0.000000 -0.934639 0.355597
    outer loop
      vertex 4.659692 96.249501 16.614624
      vertex 8.022868 96.249501 16.614624
      vertex 8.324246 96.607137 17.554622
    endloop
  endfacet
  facet normal 0.000000 -0.934639 0.355597
    outer loop
      vertex 4.659692 96.249501 16.614624
      vertex 8.324246 96.607137 17.554622
      vertex 4.348230 96.607137 17.554622
    endloop
  endfacet
  facet normal -0.977094 -0.000000 -0.212808
    outer loop
      vertex 0.283289 101.274713 18.476494
      vertex 0.283289 83.910560 18.476494
      vertex 0.075121 83.555626 19.432281
    endloop
  endfacet
  facet normal -0.977094 0.000000 -0.212808
    outer loop
      vertex 0.283289 101.274713 18.476494
      vertex 0.075121 83.555626 19.432281
      vertex 0.075121 101.513742 19.432281
    endloop
  endfacet
  facet normal 0.976197 -0.000000 0.216885
    outer loop
      vertex 4.348230 90.841441 17.554622
      vertex 4.348230 96.607137 17.554622
      vertex 4.140509 96.845653 18.489572
    endloop
  endfacet
  facet normal 0.976197 0.000000 0.216885
    outer loop
      vertex 4.348230 90.841441 17.554622
      vertex 4.140509 96.845653 18.489572
      vertex 4.140509 90.487270 18.489572
    endloop
  endfacet
  facet normal 0.792023 -0.608156 -0.053340
    outer loop
      vertex 0.283289 83.910560 18.476494
      vertex 2.119002 86.301276 18.476494
      vertex 1.973627 86.028119 19.432281
    endloop
  endfacet
  facet normal 0.792023 -0.608156 -0.053340
    outer loop
      vertex 0.283289 83.910560 18.476494
      vertex 1.973627 86.028119 19.432281
      vertex 0.075121 83.555626 19.432281
    endloop
  endfacet
  facet normal -0.791978 0.608121 0.054408
    outer loop
      vertex 4.957771 91.635269 17.554622
      vertex 4.348230 90.841441 17.554622
      vertex 4.140509 90.487270 18.489572
    endloop
  endfacet
  facet normal -0.791978 0.608121 0.054408
    outer loop
      vertex 4.957771 91.635269 17.554622
      vertex 4.140509 90.487270 18.489572
      vertex 4.812708 91.362699 18.489572
    endloop
  endfacet
  facet normal 0.781648 -0.620962 -0.058578
    outer loop
      vertex 2.119002 86.301276 18.476494
      vertex 4.197400 88.917499 18.476494
      vertex 4.123119 88.733834 19.432281
    endloop
  endfacet
  facet normal 0.781648 -0.620962 -0.058578
    outer loop
      vertex 2.119002 86.301276 18.476494
      vertex 4.123119 88.733834 19.432281
      vertex 1.973627 86.028119 19.432281
    endloop
  endfacet
  facet normal -0.781594 0.620919 0.059751
    outer loop
      vertex 5.647895 92.503975 17.554622
      vertex 4.957771 91.635269 17.554622
      vertex 4.812708 91.362699 18.489572
    endloop
  endfacet
  facet normal -0.781594 0.620919 0.059751
    outer loop
      vertex 5.647895 92.503975 17.554622
      vertex 4.812708 91.362699 18.489572
      vertex 5.573774 92.320704 18.489572
    endloop
  endfacet
  facet normal 0.781920 -0.620628 -0.058492
    outer loop
      vertex 4.197400 88.917499 18.476494
      vertex 6.562400 91.897130 18.476494
      vertex 6.569017 91.815387 19.432281
    endloop
  endfacet
  facet normal 0.781920 -0.620628 -0.058492
    outer loop
      vertex 4.197400 88.917499 18.476494
      vertex 6.569017 91.815387 19.432281
      vertex 4.123119 88.733834 19.432281
    endloop
  endfacet
  facet normal -0.781866 0.620585 0.059663
    outer loop
      vertex 6.433183 93.493349 17.554622
      vertex 5.647895 92.503975 17.554622
      vertex 5.573774 92.320704 18.489572
    endloop
  endfacet
  facet normal -0.781866 0.620585 0.059663
    outer loop
      vertex 6.433183 93.493349 17.554622
      vertex 5.573774 92.320704 18.489572
      vertex 6.439786 93.411781 18.489572
    endloop
  endfacet
  facet normal 0.836469 -0.545499 -0.052445
    outer loop
      vertex 6.562400 91.897130 18.476494
      vertex 8.795901 95.321981 18.476494
      vertex 8.878918 95.357389 19.432281
    endloop
  endfacet
  facet normal 0.836469 -0.545499 -0.052445
    outer loop
      vertex 6.562400 91.897130 18.476494
      vertex 8.878918 95.357389 19.432281
      vertex 6.569017 91.815387 19.432281
    endloop
  endfacet
  facet normal -0.836422 0.545469 0.053495
    outer loop
      vertex 7.174808 94.630557 17.554622
      vertex 6.433183 93.493349 17.554622
      vertex 6.439786 93.411781 18.489572
    endloop
  endfacet
  facet normal -0.836422 0.545469 0.053495
    outer loop
      vertex 7.174808 94.630557 17.554622
      vertex 6.439786 93.411781 18.489572
      vertex 7.257647 94.665889 18.489572
    endloop
  endfacet
  facet normal 0.866148 -0.496545 -0.056836
    outer loop
      vertex 8.795901 95.321981 18.476494
      vertex 10.589204 98.450125 18.476494
      vertex 10.733563 98.592535 19.432281
    endloop
  endfacet
  facet normal 0.866148 -0.496545 -0.056836
    outer loop
      vertex 8.795901 95.321981 18.476494
      vertex 10.733563 98.592535 19.432281
      vertex 8.878918 95.357389 19.432281
    endloop
  endfacet
  facet normal -0.866091 0.496513 0.057974
    outer loop
      vertex 7.770267 95.669244 17.554622
      vertex 7.174808 94.630557 17.554622
      vertex 7.257647 94.665889 18.489572
    endloop
  endfacet
  facet normal -0.866091 0.496513 0.057974
    outer loop
      vertex 7.770267 95.669244 17.554622
      vertex 7.257647 94.665889 18.489572
      vertex 7.914316 95.811349 18.489572
    endloop
  endfacet
  facet normal 0.859864 -0.507633 -0.054235
    outer loop
      vertex 10.589204 98.450125 18.476494
      vertex 12.232466 101.233596 18.476494
      vertex 12.433036 101.471219 19.432281
    endloop
  endfacet
  facet normal 0.859864 -0.507633 -0.054235
    outer loop
      vertex 10.589204 98.450125 18.476494
      vertex 12.433036 101.471219 19.432281
      vertex 10.733563 98.592535 19.432281
    endloop
  endfacet
  facet normal -0.859813 0.507603 0.055321
    outer loop
      vertex 8.315905 96.593484 17.554622
      vertex 7.770267 95.669244 17.554622
      vertex 7.914316 95.811349 18.489572
    endloop
  endfacet
  facet normal -0.859813 0.507603 0.055321
    outer loop
      vertex 8.315905 96.593484 17.554622
      vertex 7.914316 95.811349 18.489572
      vertex 8.516044 96.830597 18.489572
    endloop
  endfacet
  facet normal 0.852316 -0.520688 -0.049405
    outer loop
      vertex 12.232466 101.233596 18.476494
      vertex 12.257585 101.274713 18.476494
      vertex 12.459013 101.513742 19.432281
    endloop
  endfacet
  facet normal 0.852316 -0.520688 -0.049405
    outer loop
      vertex 12.232466 101.233596 18.476494
      vertex 12.459013 101.513742 19.432281
      vertex 12.433036 101.471219 19.432281
    endloop
  endfacet
  facet normal -0.852274 0.520663 0.050395
    outer loop
      vertex 8.324246 96.607137 17.554622
      vertex 8.315905 96.593484 17.554622
      vertex 8.516044 96.830597 18.489572
    endloop
  endfacet
  facet normal -0.852274 0.520663 0.050395
    outer loop
      vertex 8.324246 96.607137 17.554622
      vertex 8.516044 96.830597 18.489572
      vertex 8.525242 96.845653 18.489572
    endloop
  endfacet
  facet normal 0.000000 0.970123 -0.242614
    outer loop
      vertex 12.257585 101.274713 18.476494
      vertex 0.283289 101.274713 18.476494
      vertex 0.075121 101.513742 19.432281
    endloop
  endfacet
  facet normal 0.000000 0.970123 -0.242614
    outer loop
      vertex 12.257585 101.274713 18.476494
      vertex 0.075121 101.513742 19.432281
      vertex 12.459013 101.513742 19.432281
    endloop
  endfacet
  facet normal 0.000000 -0.968966 0.247194
    outer loop
      vertex 4.348230 96.607137 17.554622
      vertex 8.324246 96.607137 17.554622
      vertex 8.525242 96.845653 18.489572
    endloop
  endfacet
  facet normal 0.000000 -0.968966 0.247194
    outer loop
      vertex 4.348230 96.607137 17.554622
      vertex 8.525242 96.845653 18.489572
      vertex 4.140509 96.845653 18.489572
    endloop
  endfacet
  facet normal -0.996798 -0.000000 -0.079955
    outer loop
      vertex 0.075121 101.513742 19.432281
      vertex 0.075121 83.555626 19.432281
      vertex 0.000000 83.427542 20.368818
    endloop
  endfacet
  facet normal -0.996798 0.000000 -0.079955
    outer loop
      vertex 0.075121 101.513742 19.432281
      vertex 0.000000 83.427542 20.368818
      vertex 0.000000 101.600000 20.368818
    endloop
  endfacet
  facet normal 0.996754 -0.000000 0.080501
    outer loop
      vertex 4.140509 90.487270 18.489572
      vertex 4.140509 96.845653 18.489572
      vertex 4.065460 96.931828 19.418818
    endloop
  endfacet
  facet normal 0.996754 0.000000 0.080501
    outer loop
      vertex 4.140509 90.487270 18.489572
      vertex 4.065460 96.931828 19.418818
      vertex 4.065460 90.359308 19.418818
    endloop
  endfacet
  facet normal 0.792999 -0.608905 -0.019668
    outer loop
      vertex 0.075121 83.555626 19.432281
      vertex 1.973627 86.028119 19.432281
      vertex 1.921166 85.929546 20.368818
    endloop
  endfacet
  facet normal 0.792999 -0.608905 -0.019668
    outer loop
      vertex 0.075121 83.555626 19.432281
      vertex 1.921166 85.929546 20.368818
      vertex 0.000000 83.427542 20.368818
    endloop
  endfacet
  facet normal -0.792997 0.608904 0.019804
    outer loop
      vertex 4.812708 91.362699 18.489572
      vertex 4.140509 90.487270 18.489572
      vertex 4.065460 90.359308 19.418818
    endloop
  endfacet
  facet normal -0.792997 0.608904 0.019804
    outer loop
      vertex 4.812708 91.362699 18.489572
      vertex 4.065460 90.359308 19.418818
      vertex 4.760298 91.264220 19.418818
    endloop
  endfacet
  facet normal 0.782810 -0.621885 -0.021605
    outer loop
      vertex 1.973627 86.028119 19.432281
      vertex 4.123119 88.733834 19.432281
      vertex 4.096314 88.667555 20.368818
    endloop
  endfacet
  facet normal 0.782810 -0.621885 -0.021605
    outer loop
      vertex 1.973627 86.028119 19.432281
      vertex 4.096314 88.667555 20.368818
      vertex 1.921166 85.929546 20.368818
    endloop
  endfacet
  facet normal -0.782808 0.621883 0.021754
    outer loop
      vertex 5.573774 92.320704 18.489572
      vertex 4.812708 91.362699 18.489572
      vertex 4.760298 91.264220 19.418818
    endloop
  endfacet
  facet normal -0.782808 0.621883 0.021754
    outer loop
      vertex 5.573774 92.320704 18.489572
      vertex 4.760298 91.264220 19.418818
      vertex 5.546994 92.254488 19.418818
    endloop
  endfacet
  facet normal 0.783079 -0.621548 -0.021574
    outer loop
      vertex 4.123119 88.733834 19.432281
      vertex 6.569017 91.815387 19.432281
      vertex 6.571405 91.785888 20.368818
    endloop
  endfacet
  facet normal 0.783079 -0.621548 -0.021574
    outer loop
      vertex 4.123119 88.733834 19.432281
      vertex 6.571405 91.785888 20.368818
      vertex 4.096314 88.667555 20.368818
    endloop
  endfacet
  facet normal -0.783077 0.621546 0.021722
    outer loop
      vertex 6.439786 93.411781 18.489572
      vertex 5.573774 92.320704 18.489572
      vertex 5.546994 92.254488 19.418818
    endloop
  endfacet
  facet normal -0.783077 0.621546 0.021722
    outer loop
      vertex 6.439786 93.411781 18.489572
      vertex 5.546994 92.254488 19.418818
      vertex 6.442172 93.382311 19.418818
    endloop
  endfacet
  facet normal 0.837465 -0.546149 -0.019338
    outer loop
      vertex 6.569017 91.815387 19.432281
      vertex 8.878918 95.357389 19.432281
      vertex 8.908876 95.370167 20.368818
    endloop
  endfacet
  facet normal 0.837465 -0.546149 -0.019338
    outer loop
      vertex 6.569017 91.815387 19.432281
      vertex 8.908876 95.370167 20.368818
      vertex 6.571405 91.785888 20.368818
    endloop
  endfacet
  facet normal -0.837463 0.546147 0.019471
    outer loop
      vertex 7.257647 94.665889 18.489572
      vertex 6.439786 93.411781 18.489572
      vertex 6.442172 93.382311 19.418818
    endloop
  endfacet
  facet normal -0.837463 0.546147 0.019471
    outer loop
      vertex 7.257647 94.665889 18.489572
      vertex 6.442172 93.382311 19.418818
      vertex 7.287576 94.678654 19.418818
    endloop
  endfacet
  facet normal 0.867360 -0.497240 -0.020961
    outer loop
      vertex 8.878918 95.357389 19.432281
      vertex 10.733563 98.592535 19.432281
      vertex 10.785657 98.643927 20.368818
    endloop
  endfacet
  facet normal 0.867360 -0.497240 -0.020961
    outer loop
      vertex 8.878918 95.357389 19.432281
      vertex 10.785657 98.643927 20.368818
      vertex 8.908876 95.370167 20.368818
    endloop
  endfacet
  facet normal -0.867357 0.497239 0.021105
    outer loop
      vertex 7.914316 95.811349 18.489572
      vertex 7.257647 94.665889 18.489572
      vertex 7.287576 94.678654 19.418818
    endloop
  endfacet
  facet normal -0.867357 0.497239 0.021105
    outer loop
      vertex 7.914316 95.811349 18.489572
      vertex 7.287576 94.678654 19.418818
      vertex 7.966361 95.862691 19.418818
    endloop
  endfacet
  facet normal 0.860960 -0.508280 -0.019999
    outer loop
      vertex 10.733563 98.592535 19.432281
      vertex 12.433036 101.471219 19.432281
      vertex 12.505414 101.556969 20.368818
    endloop
  endfacet
  facet normal 0.860960 -0.508280 -0.019999
    outer loop
      vertex 10.733563 98.592535 19.432281
      vertex 12.505414 101.556969 20.368818
      vertex 10.785657 98.643927 20.368818
    endloop
  endfacet
  facet normal -0.860957 0.508279 0.020137
    outer loop
      vertex 8.516044 96.830597 18.489572
      vertex 7.914316 95.811349 18.489572
      vertex 7.966361 95.862691 19.418818
    endloop
  endfacet
  facet normal -0.860957 0.508279 0.020137
    outer loop
      vertex 8.516044 96.830597 18.489572
      vertex 7.966361 95.862691 19.418818
      vertex 8.588354 96.916265 19.418818
    endloop
  endfacet
  facet normal 0.853217 -0.521239 -0.018214
    outer loop
      vertex 12.433036 101.471219 19.432281
      vertex 12.459013 101.513742 19.432281
      vertex 12.531702 101.600000 20.368818
    endloop
  endfacet
  facet normal 0.853217 -0.521239 -0.018214
    outer loop
      vertex 12.433036 101.471219 19.432281
      vertex 12.531702 101.600000 20.368818
      vertex 12.505414 101.556969 20.368818
    endloop
  endfacet
  facet normal -0.853215 0.521237 0.018340
    outer loop
      vertex 8.525242 96.845653 18.489572
      vertex 8.516044 96.830597 18.489572
      vertex 8.588354 96.916265 19.418818
    endloop
  endfacet
  facet normal -0.853215 0.521237 0.018340
    outer loop
      vertex 8.525242 96.845653 18.489572
      vertex 8.588354 96.916265 19.418818
      vertex 8.597861 96.931828 19.418818
    endloop
  endfacet
  facet normal 0.000000 0.995785 -0.091715
    outer loop
      vertex 12.459013 101.513742 19.432281
      vertex 0.075121 101.513742 19.432281
      vertex 0.000000 101.600000 20.368818
    endloop
  endfacet
  facet normal 0.000000 0.995785 -0.091715
    outer loop
      vertex 12.459013 101.513742 19.432281
      vertex 0.000000 101.600000 20.368818
      vertex 12.531702 101.600000 20.368818
    endloop
  endfacet
  facet normal 0.000000 -0.995727 0.092341
    outer loop
      vertex 4.140509 96.845653 18.489572
      vertex 8.525242 96.845653 18.489572
      vertex 8.597861 96.931828 19.418818
    endloop
  endfacet
  facet normal 0.000000 -0.995727 0.092341
    outer loop
      vertex 4.140509 96.845653 18.489572
      vertex 8.597861 96.931828 19.418818
      vertex 4.065460 96.931828 19.418818
    endloop
  endfacet
  facet normal 0.000000 0.000000 -1.000000
    outer loop
      vertex 3.693990 97.358369 4.311286
      vertex 4.500880 90.776778 4.311286
      vertex 3.693990 89.725937 4.311286
    endloop
  endfacet
  facet normal 0.000000 0.000000 -1.000000
    outer loop
      vertex 3.693990 97.358369 4.311286
      vertex 5.414442 91.926742 4.311286
      vertex 4.500880 90.776778 4.311286
    endloop
  endfacet
  facet normal 0.000000 0.000000 -1.000000
    outer loop
      vertex 3.693990 97.358369 4.311286
      vertex 6.453980 93.236442 4.311286
      vertex 5.414442 91.926742 4.311286
    endloop
  endfacet
  facet normal 0.000000 0.000000 -1.000000
    outer loop
      vertex 3.693990 97.358369 4.311286
      vertex 7.435718 94.741839 4.311286
      vertex 6.453980 93.236442 4.311286
    endloop
  endfacet
  facet normal 0.000000 0.000000 -1.000000
    outer loop
      vertex 3.693990 97.358369 4.311286
      vertex 8.223966 96.116818 4.311286
      vertex 7.435718 94.741839 4.311286
    endloop
  endfacet
  facet normal 0.000000 0.000000 -1.000000
    outer loop
      vertex 3.693990 97.358369 4.311286
      vertex 8.946264 97.340296 4.311286
      vertex 8.223966 96.116818 4.311286
    endloop
  endfacet
  facet normal 0.000000 0.000000 -1.000000
    outer loop
      vertex 3.693990 97.358369 4.311286
      vertex 8.957305 97.358369 4.311286
      vertex 8.946264 97.340296 4.311286
    endloop
  endfacet
  facet normal 0.227546 0.000000 0.973767
    outer loop
      vertex 0.000000 101.600000 20.368818
      vertex 0.000000 83.427542 20.368818
      vertex 4.065460 90.359308 19.418818
    endloop
  endfacet
  facet normal 0.227546 0.000000 0.973767
    outer loop
      vertex 0.000000 101.600000 20.368818
      vertex 4.065460 90.359308 19.418818
      vertex 4.065460 96.931828 19.418818
    endloop
  endfacet
  facet normal -0.547124 0.420110 0.723991
    outer loop
      vertex 0.000000 83.427542 20.368818
      vertex 1.921166 85.929546 20.368818
      vertex 4.760298 91.264220 19.418818
    endloop
  endfacet
  facet normal -0.547124 0.420110 0.723991
    outer loop
      vertex 0.000000 83.427542 20.368818
      vertex 4.760298 91.264220 19.418818
      vertex 4.065460 90.359308 19.418818
    endloop
  endfacet
  facet normal -0.513031 0.407566 0.755439
    outer loop
      vertex 1.921166 85.929546 20.368818
      vertex 4.096314 88.667555 20.368818
      vertex 5.546994 92.254488 19.418818
    endloop
  endfacet
  facet normal -0.513031 0.407566 0.755439
    outer loop
      vertex 1.921166 85.929546 20.368818
      vertex 5.546994 92.254488 19.418818
      vertex 4.760298 91.264220 19.418818
    endloop
  endfacet
  facet normal -0.513636 0.407685 0.754964
    outer loop
      vertex 4.096314 88.667555 20.368818
      vertex 6.571405 91.785888 20.368818
      vertex 6.442172 93.382311 19.418818
    endloop
  endfacet
  facet normal -0.513636 0.407685 0.754964
    outer loop
      vertex 4.096314 88.667555 20.368818
      vertex 6.442172 93.382311 19.418818
      vertex 5.546994 92.254488 19.418818
    endloop
  endfacet
  facet normal -0.582920 0.380149 0.718116
    outer loop
      vertex 6.571405 91.785888 20.368818
      vertex 8.908876 95.370167 20.368818
      vertex 7.287576 94.678654 19.418818
    endloop
  endfacet
  facet normal -0.582920 0.380149 0.718116
    outer loop
      vertex 6.571405 91.785888 20.368818
      vertex 7.287576 94.678654 19.418818
      vertex 6.442172 93.382311 19.418818
    endloop
  endfacet
  facet normal -0.578215 0.331479 0.745513
    outer loop
      vertex 8.908876 95.370167 20.368818
      vertex 10.785657 98.643927 20.368818
      vertex 7.966361 95.862691 19.418818
    endloop
  endfacet
  facet normal -0.578215 0.331479 0.745513
    outer loop
      vertex 8.908876 95.370167 20.368818
      vertex 7.966361 95.862691 19.418818
      vertex 7.287576 94.678654 19.418818
    endloop
  endfacet
  facet normal -0.588802 0.347608 0.729713
    outer loop
      vertex 10.785657 98.643927 20.368818
      vertex 12.505414 101.556969 20.368818
      vertex 8.588354 96.916265 19.418818
    endloop
  endfacet
  facet normal -0.588802 0.347608 0.729713
    outer loop
      vertex 10.785657 98.643927 20.368818
      vertex 8.588354 96.916265 19.418818
      vertex 7.966361 95.862691 19.418818
    endloop
  endfacet
  facet normal -0.611941 0.373841 0.696973
    outer loop
      vertex 12.505414 101.556969 20.368818
      vertex 12.531702 101.600000 20.368818
      vertex 8.597861 96.931828 19.418818
    endloop
  endfacet
  facet normal -0.611941 0.373841 0.696973
    outer loop
      vertex 12.505414 101.556969 20.368818
      vertex 8.597861 96.931828 19.418818
      vertex 8.588354 96.916265 19.418818
    endloop
  endfacet
  facet normal 0.000000 -0.199418 0.979914
    outer loop
      vertex 12.531702 101.600000 20.368818
      vertex 0.000000 101.600000 20.368818
      vertex 4.065460 96.931828 19.418818
    endloop
  endfacet
  facet normal 0.000000 -0.199418 0.979914
    outer loop
      vertex 12.531702 101.600000 20.368818
      vertex 4.065460 96.931828 19.418818
      vertex 8.597861 96.931828 19.418818
    endloop
  endfacet
  facet normal 0.000000 0.000000 1.000000
    outer loop
      vertex 5.888885 94.838077 13.770878
      vertex 5.888885 93.468317 13.770878
      vertex 6.033694 93.656907 13.770878
    endloop
  endfacet
  facet normal 0.000000 0.000000 1.000000
    outer loop
      vertex 5.888885 94.838077 13.770878
      vertex 6.033694 93.656907 13.770878
      vertex 6.197647 93.863286 13.770878
    endloop
  endfacet
  facet normal 0.000000 0.000000 1.000000
    outer loop
      vertex 5.888885 94.838077 13.770878
      vertex 6.197647 93.863286 13.770878
      vertex 6.384209 94.098333 13.770878
    endloop
  endfacet
  facet normal 0.000000 0.000000 1.000000
    outer loop
      vertex 5.888885 94.838077 13.770878
      vertex 6.384209 94.098333 13.770878
      vertex 6.560397 94.368500 13.770878
    endloop
  endfacet
  facet normal 0.000000 0.000000 1.000000
    outer loop
      vertex 5.888885 94.838077 13.770878
      vertex 6.560397 94.368500 13.770878
      vertex 6.701861 94.615261 13.770878
    endloop
  endfacet
  facet normal 0.000000 0.000000 1.000000
    outer loop
      vertex 5.888885 94.838077 13.770878
      vertex 6.701861 94.615261 13.770878
      vertex 6.831488 94.834834 13.770878
    endloop
  endfacet
  facet normal -0.000000 0.000000 1.000000
    outer loop
      vertex 5.888885 94.838077 13.770878
      vertex 6.831488 94.834834 13.770878
      vertex 6.833470 94.838077 13.770878
    endloop
  endfacet
endsolid box_wall_long_r1_c1_tubes_color_3_white
